<?xml version="1.0" encoding="utf-8"?>
<!-- Generator: Adobe Illustrator 27.5.0, SVG Export Plug-In . SVG Version: 6.00 Build 0)  -->
<svg version="1.1" id="Layer_2" xmlns="http://www.w3.org/2000/svg" xmlns:xlink="http://www.w3.org/1999/xlink" x="0px" y="0px"
	 viewBox="0 0 384.847 467.935" style="enable-background:new 0 0 384.847 467.935;" xml:space="preserve">
<g>
	<g>
		<g>
			<g>
				<g>
					<g>
						<path style="fill:#8AC843;" d="M293.523,327.188c0.009-0.001,0.019-0.003,0.028-0.004c2.202-0.358,3.704-2.41,3.361-4.615
							c-0.013-0.086-0.06-0.342-0.137-0.754c-2.805-15.051-11.143-66.257-0.658-93.321c0.809-2.09-0.229-4.441-2.319-5.251
							c-2.092-0.809-4.44,0.228-5.252,2.319c-11.258,29.06-2.656,82.158,0.247,97.74l0.1,0.539
							C289.268,326.032,291.332,327.529,293.523,327.188z"/>
						<path style="fill:#669629;" d="M292.907,328.048c-2.331,0-4.409-1.7-4.812-4.07l-0.098-0.528
							c-2.913-15.635-11.541-68.923-0.206-98.181c0.972-2.502,3.798-3.75,6.302-2.784c2.505,0.972,3.753,3.799,2.783,6.302
							c-10.407,26.864-2.097,77.883,0.698,92.879c0.08,0.43,0.128,0.696,0.141,0.786c0.408,2.619-1.401,5.104-4.033,5.532
							l-0.035,0.006C293.4,328.029,293.152,328.048,292.907,328.048z M292.341,223.782c-1.303,0-2.536,0.79-3.036,2.074
							c-11.18,28.858-2.605,81.769,0.289,97.298l0.1,0.541c0.3,1.758,1.959,2.968,3.701,2.692l0.024-0.003
							c1.758-0.287,2.964-1.941,2.691-3.688c-0.013-0.092-0.059-0.336-0.132-0.731c-2.814-15.104-11.177-66.5-0.616-93.763
							c0.647-1.67-0.185-3.553-1.855-4.202C293.124,223.852,292.729,223.782,292.341,223.782z"/>
					</g>
					<path style="opacity:0.5;fill:#8AC843;" d="M288.548,225.563c0.711-1.83,2.597-2.852,4.459-2.537
						c-0.475,0.417-0.87,0.937-1.115,1.567c-11.258,29.06-2.656,82.159,0.247,97.74l0.1,0.539c0.3,1.761,1.697,3.055,3.371,3.325
						c-0.559,0.501-1.26,0.858-2.057,0.987c-0.009,0.001-0.019,0.003-0.028,0.004c-2.192,0.341-4.256-1.157-4.628-3.347l-0.1-0.539
						C285.892,307.721,277.29,254.622,288.548,225.563z"/>
				</g>
				<g>
					<g>
						<g>
							<path style="fill:#8AC843;" d="M293.849,200.565c0.352-25.931,63.704-19.367,76.26,41.132
								c12.556,60.499-5.993,89.892-11.986,75.909c-5.993-13.983-9.043-26.078-42.806-31.604
								c-33.763-5.525-54.239-34.989-54.506-56.576C260.583,210.876,273.372,193.185,293.849,200.565z"/>
							<path style="fill:#669629;" d="M361.943,321.842c-1.326,0-3.181-0.686-4.565-3.916c-0.363-0.847-0.715-1.687-1.064-2.518
								c-5.284-12.602-9.847-23.486-41.126-28.606c-32.653-5.343-54.898-33.976-55.188-57.368
								c-0.143-11.486,4.504-21.993,12.128-27.418c5.927-4.221,13.155-5.102,20.963-2.569c0.65-7.684,6.984-12.974,16.807-13.916
								c20.1-1.923,52.325,14.175,61.006,56.001c10.077,48.554,0.45,77.54-7.77,80.126
								C362.84,321.752,362.427,321.842,361.943,321.842z M284.661,199.665c-4.241,0-8.158,1.23-11.591,3.674
								c-7.196,5.123-11.582,15.115-11.446,26.077c0.244,19.734,19.085,50.1,53.826,55.785c32.167,5.264,36.892,16.532,42.362,29.58
								c0.347,0.828,0.698,1.663,1.058,2.505c0.691,1.614,1.904,3.425,3.777,2.824c6.12-1.925,17.09-28.027,6.667-78.247
								c-8.477-40.843-39.759-56.581-59.261-54.713c-9.537,0.913-15.292,5.933-15.393,13.428l-0.016,1.138l-1.071-0.385
								C290.492,200.218,287.504,199.665,284.661,199.665z"/>
						</g>
						<g>
							<path style="fill:#8AC843;" d="M293.849,200.565c0.352-25.931,63.704-19.367,76.26,41.132
								c12.556,60.499-5.993,89.892-11.986,75.909c-5.993-13.983-9.043-26.078-42.806-31.604
								c-33.763-5.525-54.239-34.989-54.506-56.576C260.583,210.876,273.372,193.185,293.849,200.565z"/>
							<path style="fill:#669629;" d="M361.943,321.842c-1.326,0-3.181-0.686-4.565-3.916c-0.363-0.847-0.715-1.687-1.064-2.518
								c-5.284-12.602-9.847-23.486-41.126-28.606c-32.653-5.343-54.898-33.976-55.188-57.368
								c-0.143-11.486,4.504-21.993,12.128-27.418c5.927-4.221,13.155-5.102,20.963-2.569c0.65-7.684,6.984-12.974,16.807-13.916
								c20.1-1.923,52.325,14.175,61.006,56.001c10.077,48.554,0.45,77.54-7.77,80.126
								C362.84,321.752,362.427,321.842,361.943,321.842z M284.661,199.665c-4.241,0-8.158,1.23-11.591,3.674
								c-7.196,5.123-11.582,15.115-11.446,26.077c0.244,19.734,19.085,50.1,53.826,55.785c32.167,5.264,36.892,16.532,42.362,29.58
								c0.347,0.828,0.698,1.663,1.058,2.505c0.691,1.614,1.904,3.425,3.777,2.824c6.12-1.925,17.09-28.027,6.667-78.247
								c-8.477-40.843-39.759-56.581-59.261-54.713c-9.537,0.913-15.292,5.933-15.393,13.428l-0.016,1.138l-1.071-0.385
								C290.492,200.218,287.504,199.665,284.661,199.665z"/>
						</g>
						<g>
							<path style="fill:#669629;" d="M277.676,199.867c1.618-0.523,3.212-1.307,4.948-1.478c0.856-0.119,1.713-0.369,2.582-0.379
								l2.621-0.065c3.479,0.2,6.978,0.885,10.219,2.19c6.56,2.489,12.343,6.551,17.603,11.017l3.802,3.525l3.627,3.69l3.416,3.873
								c1.115,1.31,2.175,2.662,3.264,3.991c4.239,5.409,8.116,11.061,11.705,16.914c0.954,1.426,1.789,2.924,2.611,4.43
								l2.498,4.494c1.588,3.036,3.038,6.145,4.499,9.24l1.975,4.742l0.987,2.37l0.862,2.419l1.721,4.836l1.479,4.914
								c3.712,13.143,5.899,26.811,5.22,40.461l-0.324-0.025c0.243-13.579-2.367-27.096-6.45-39.966l-1.577-4.822l-1.814-4.737
								l-0.907-2.367l-1.031-2.316l-2.059-4.63c-1.515-3.018-3.016-6.047-4.65-8.998l-2.566-4.365
								c-0.844-1.461-1.698-2.915-2.672-4.296c-3.696-5.639-7.692-11.102-12.008-16.278c-1.09-1.282-2.153-2.59-3.265-3.85
								l-3.384-3.736l-3.482-3.631l-3.639-3.459c-4.872-4.573-10.3-8.573-16.308-11.35c-2.975-1.476-6.192-2.343-9.462-2.803
								c-3.299-0.486-6.635-0.05-9.929,0.748L277.676,199.867z"/>
						</g>
						<g>
							<g>
								<path style="fill:#669629;" d="M365.797,227.451c-3.804-3.561-7.981-6.716-12.341-9.539
									c-4.358-2.829-8.959-5.282-13.769-7.176c-4.822-1.876-9.861-3.059-14.949-3.614c-2.547-0.307-5.116-0.298-7.684-0.164
									c-2.572,0.163-5.115,0.629-7.672,1.189l-0.052-0.154c2.423-1.006,4.975-1.752,7.598-2.16
									c2.623-0.382,5.293-0.476,7.949-0.329c2.651,0.216,5.279,0.667,7.838,1.365c2.549,0.73,5.039,1.627,7.463,2.665
									c4.846,2.084,9.423,4.715,13.73,7.704c4.279,3.03,8.335,6.368,12.004,10.099L365.797,227.451z"/>
							</g>
							<g>
								<path style="fill:#669629;" d="M374.308,266.341c-2.437-4.105-5.288-7.956-8.348-11.601
									c-3.054-3.653-6.388-7.062-9.974-10.164c-3.603-3.097-7.59-5.652-11.634-8.053c-4.069-2.418-8.48-4.077-13.027-5.615
									l0.032-0.159c4.765,0.63,9.453,2.125,13.771,4.348c4.282,2.288,8.181,5.231,11.718,8.507
									c3.539,3.278,6.792,6.841,9.745,10.628c2.917,3.814,5.6,7.805,7.859,12.034L374.308,266.341z"/>
							</g>
							<g>
								<path style="fill:#669629;" d="M309.284,283.143c-2.936-6.005-5.3-12.28-7.249-18.683
									c-1.882-6.421-3.343-12.993-4.024-19.683c-0.718-6.67-0.757-13.508,0.635-20.151c0.761-3.299,1.754-6.549,3.145-9.633
									c1.443-3.06,3.219-5.947,5.338-8.544l0.131,0.095c-1.733,2.857-3.233,5.811-4.425,8.885
									c-1.136,3.097-2.019,6.273-2.596,9.511c-1.142,6.472-1.468,13.11-0.935,19.717c0.51,6.609,1.797,13.157,3.512,19.581
									c1.728,6.421,3.881,12.754,6.613,18.833L309.284,283.143z"/>
							</g>
							<g>
								<path style="fill:#669629;" d="M371.695,304.935c-0.228-3.339-0.576-6.675-1.579-9.853
									c-0.371-1.621-1.043-3.148-1.597-4.704c-0.711-1.496-1.344-3.026-2.212-4.437c-1.635-2.874-3.644-5.498-5.726-8.048
									c-2.078-2.564-4.354-4.971-6.802-7.276l0.09-0.135c1.513,0.784,2.901,1.776,4.222,2.847c0.676,0.52,1.282,1.117,1.926,1.677
									l1.791,1.825c2.326,2.506,4.121,5.461,5.643,8.497c0.82,1.493,1.399,3.102,2.05,4.667c0.494,1.627,1.1,3.216,1.401,4.889
									c0.81,3.298,0.943,6.701,0.955,10.052L371.695,304.935z"/>
							</g>
							<g>
								<path style="fill:#669629;" d="M337.54,292.328c-3.311-4.456-5.713-9.54-7.55-14.776c-1.809-5.255-3.079-10.69-3.908-16.19
									c-0.824-5.496-1.314-11.089-0.9-16.672c0.49-5.521,1.47-11.25,4.435-16.03l0.142,0.079
									c-2.084,5.115-2.753,10.59-2.956,16.043c-0.194,5.457-0.075,10.951,0.566,16.406c0.658,5.449,1.755,10.857,3.391,16.108
									c1.615,5.249,3.792,10.374,6.911,14.936L337.54,292.328z"/>
							</g>
							<g>
								<path style="fill:#669629;" d="M284.552,272.464c-3.057-5.978-5.153-12.431-6.501-19.021
									c-1.304-6.602-1.868-13.369-1.501-20.122c0.376-6.723,1.598-13.573,4.724-19.696c1.587-3.025,3.562-5.88,6.034-8.248
									c2.461-2.37,5.374-4.263,8.537-5.431l0.067,0.148c-5.935,3.148-10.443,8.301-13.181,14.25
									c-2.797,5.929-4.338,12.457-4.884,19.065c-0.522,6.617-0.13,13.317,1.003,19.885c1.124,6.568,2.995,13.043,5.849,19.098
									L284.552,272.464z"/>
							</g>
						</g>
					</g>
					<path style="opacity:0.5;fill:#8AC843;" d="M260.812,229.426c0.267,21.587,20.744,51.051,54.506,56.576
						c33.763,5.526,36.813,17.62,42.806,31.604c5.993,13.983,24.542-15.41,11.986-75.909c-12.556-60.499-75.909-67.063-76.26-41.132
						C273.372,193.185,260.583,210.876,260.812,229.426z M296.03,207.6c30.994,8.368,60.863,75.849,61.83,77.837
						c0,0-4.08-42.651-37.303-73.708c-20.438-19.105-4.193-22.639,6.801-18.813c10.994,3.826,40.763,17.166,44.5,69.598
						c2.615,36.694-8.989,51.621-8.989,51.621c-5.423-26.625-27.824-26.267-59.394-47.574
						C271.905,245.255,265.036,199.233,296.03,207.6z"/>
					<path style="opacity:0.5;fill:#8AC843;" d="M325.821,196.543c3.244,0.107,5.949,1.683,8.695,3.278
						c2.623,1.523,5.141,3.229,7.528,5.101c4.71,3.691,8.876,8.213,12.359,13.07c7.41,10.332,11.907,22.555,12.766,35.254
						c0.51,7.537-0.435,15.069-2.453,22.336c-0.151,0.545-0.989,0.126-0.88-0.371c2.77-12.542,1.668-26.139-3.03-38.096
						c-4.176-10.629-11.362-19.795-20.432-26.692c-2.419-1.84-4.888-3.598-7.514-5.135c-2.814-1.646-5.885-2.809-8.278-5.079
						C323.374,199.06,323.925,196.48,325.821,196.543z"/>
					<path style="opacity:0.5;fill:#8AC843;" d="M289.747,211.066c21.362,8.359,39.19,24.998,48.918,45.795
						c2.725,5.825,4.721,11.922,6.022,18.218c0.134,0.651-0.893,0.625-1.046,0.084c-5.892-20.944-19.571-39.568-38.063-51.104
						c-5.219-3.255-10.765-5.933-16.572-7.958c-1.347-0.47-2.502-1.81-2.274-3.313C286.938,211.435,288.451,210.559,289.747,211.066
						z"/>
				</g>
			</g>
			<g>
				<g>
					<g>
						<path style="fill:#8AC843;" d="M230.521,315.747c-0.265,0-0.534-0.026-0.804-0.08c-2.052-0.412-3.428-2.304-3.244-4.341
							c0-0.277-0.022-0.752-0.051-1.452c-1.408-36.09,3.434-103.546,13.635-189.942c0.262-2.227,2.278-3.814,4.506-3.556
							c2.226,0.263,3.818,2.281,3.555,4.507c-10.152,85.99-14.977,152.995-13.585,188.674c0.071,1.806,0.09,2.291-0.038,2.93
							C234.109,314.414,232.414,315.747,230.521,315.747z M226.536,310.888c-0.016,0.08-0.043,0.201-0.057,0.369
							C226.493,311.134,226.512,311.011,226.536,310.888z"/>
						<path style="fill:#669629;" d="M230.521,316.559c-0.317,0-0.64-0.032-0.963-0.097c-2.443-0.491-4.117-2.73-3.893-5.21
							c-0.003-0.147-0.018-0.498-0.039-0.994l-0.014-0.352c-1.41-36.134,3.434-103.637,13.64-190.07
							c0.312-2.662,2.738-4.568,5.406-4.268c1.294,0.154,2.449,0.801,3.255,1.822c0.805,1.023,1.165,2.296,1.012,3.588
							c-10.147,85.95-14.971,152.91-13.58,188.546c0.073,1.833,0.094,2.388-0.053,3.122
							C234.837,314.914,232.83,316.559,230.521,316.559z M227.282,311.349c-0.139,1.715,0.973,3.196,2.595,3.521
							c1.776,0.354,3.477-0.823,3.823-2.545c0.106-0.526,0.094-0.928,0.023-2.738c-1.394-35.717,3.433-102.768,13.59-188.8
							c0.102-0.861-0.138-1.711-0.676-2.393c-0.537-0.68-1.307-1.112-2.168-1.215c-1.777-0.205-3.396,1.07-3.605,2.846
							c-10.197,86.353-15.037,153.763-13.631,189.815l0.014,0.35c0.014,0.344,0.026,0.623,0.033,0.84l0.054,0.009
							c-0.021,0.103-0.036,0.204-0.048,0.309L227.282,311.349z"/>
					</g>
					<path style="opacity:0.5;fill:#8AC843;" d="M244.564,116.375c-0.607-0.07-1.194,0.007-1.739,0.186
						c1.261,0.814,2.029,2.286,1.841,3.876c-10.152,85.989-14.977,152.995-13.585,188.674c0.071,1.806,0.09,2.291-0.038,2.93
						c-0.299,1.49-1.382,2.616-2.731,3.055c0.416,0.269,0.889,0.467,1.405,0.571c0.27,0.054,0.539,0.08,0.804,0.08
						c1.893,0,3.588-1.333,3.975-3.261c0.128-0.639,0.109-1.124,0.038-2.93c-1.392-35.679,3.433-102.684,13.585-188.674
						C248.382,118.656,246.79,116.639,244.564,116.375z"/>
				</g>
				<g>
					<g>
						<g>
							<path style="fill:#8AC843;" d="M248.251,113.042c-10.143-17.383,32.789-36.595,67.168-3.167
								c21.767,21.165,30.693,47.293,27.237,55.486c-9.58-6.9-21.279-13.936-45.94-4.1c-24.661,9.837-50.067-1.561-58.883-15.808
								C230.257,133.211,231.682,116.329,248.251,113.042z"/>
							<path style="fill:#669629;" d="M342.656,166.172c-0.168,0-0.335-0.052-0.474-0.154c-10.37-7.465-21.624-13.393-45.166-4.002
								c-11.386,4.541-24.147,4.95-35.933,1.145c-10.365-3.345-19.315-9.806-23.941-17.282c-4.722-7.629-5.841-16.54-2.921-23.252
								c2.25-5.17,6.667-8.663,12.814-10.149c-2.495-5.237-0.745-10.85,4.814-15.199c11.576-9.052,39.96-11.49,64.135,12.014
								c22.166,21.552,31.045,47.789,27.419,56.383c-0.096,0.228-0.29,0.399-0.528,0.466
								C342.804,166.162,342.73,166.172,342.656,166.172z M273.955,92.396c-8.907,0-16.437,2.512-21.104,6.163
								c-5.285,4.133-6.705,9.264-3.898,14.075c0.132,0.227,0.148,0.503,0.04,0.742c-0.108,0.239-0.325,0.412-0.583,0.463
								c-6.153,1.221-10.544,4.484-12.699,9.436c-2.711,6.231-1.634,14.566,2.813,21.752c8.024,12.97,32.606,25.568,57.892,15.481
								c23.587-9.405,35.687-3.596,45.822,3.558c2.337-8.95-6.839-33.632-27.384-53.608
								C301.224,97.205,286.274,92.396,273.955,92.396z"/>
						</g>
						<g>
							<path style="fill:#669629;" d="M237.218,119.05c0.867-0.995,1.613-2.155,2.699-2.963c0.522-0.422,0.991-0.93,1.565-1.285
								l1.717-1.092c2.393-1.259,4.994-2.204,7.672-2.633c5.358-0.97,10.829-0.584,16.113,0.281l3.938,0.823l3.888,1.002
								l3.821,1.208c1.265,0.425,2.512,0.9,3.768,1.348c4.983,1.9,9.823,4.107,14.552,6.563c1.205,0.566,2.359,1.229,3.509,1.9
								l3.46,1.989c2.271,1.383,4.479,2.871,6.689,4.344l3.211,2.363l1.605,1.181l1.541,1.264l3.079,2.527l2.95,2.676
								c7.728,7.254,14.651,15.467,19.662,24.815l-0.225,0.113c-5.272-9.126-12.417-17.07-20.282-23.993l-2.978-2.575l-3.102-2.424
								l-1.55-1.211l-1.612-1.128l-3.222-2.255c-2.215-1.401-4.425-2.814-6.693-4.123l-3.453-1.876
								c-1.146-0.634-2.296-1.259-3.496-1.787c-4.715-2.271-9.558-4.304-14.498-6.019c-1.238-0.416-2.468-0.861-3.712-1.254
								l-3.745-1.13l-3.768-1.021l-3.804-0.844c-5.07-1.091-10.28-1.579-15.386-1.021c-2.569,0.209-5.055,0.92-7.414,1.922
								c-2.388,0.997-4.432,2.622-6.303,4.471L237.218,119.05z"/>
						</g>
						<g>
							<g>
								<path style="fill:#669629;" d="M306.851,102.128c-3.954-0.846-7.994-1.272-12.023-1.405
									c-4.03-0.137-8.071,0.073-12.027,0.738c-3.957,0.682-7.781,1.912-11.386,3.579c-1.817,0.815-3.521,1.849-5.175,2.966
									c-1.645,1.138-3.15,2.465-4.625,3.861l-0.096-0.082c1.209-1.638,2.607-3.156,4.188-4.477
									c1.591-1.303,3.329-2.435,5.154-3.399c1.849-0.917,3.777-1.669,5.758-2.229c1.987-0.535,4.002-0.934,6.029-1.215
									c4.056-0.553,8.153-0.636,12.213-0.371c4.058,0.302,8.09,0.899,12.023,1.912L306.851,102.128z"/>
							</g>
							<g>
								<path style="fill:#669629;" d="M328.073,124.582c-3.263-1.754-6.7-3.174-10.193-4.374c-3.493-1.207-7.074-2.14-10.699-2.767
									c-3.635-0.618-7.309-0.721-10.958-0.7c-3.673,0.02-7.27,0.683-10.909,1.479l-0.042-0.119
									c3.421-1.488,7.136-2.37,10.897-2.62c3.763-0.192,7.533,0.205,11.196,0.967c3.665,0.763,7.253,1.831,10.733,3.167
									c3.466,1.369,6.847,2.949,10.041,4.857L328.073,124.582z"/>
							</g>
							<g>
								<path style="fill:#669629;" d="M291.559,161.775c-4.356-2.818-8.438-6.045-12.296-9.523
									c-3.82-3.516-7.422-7.302-10.552-11.478c-3.146-4.148-5.909-8.679-7.642-13.653c-0.814-2.498-1.454-5.057-1.763-7.664
									c-0.265-2.612-0.239-5.243,0.13-7.818l0.126,0.011c-0.009,2.593,0.176,5.157,0.613,7.679
									c0.484,2.514,1.167,4.979,2.079,7.363c1.83,4.76,4.27,9.305,7.269,13.485c2.984,4.19,6.46,8.03,10.171,11.615
									c3.719,3.578,7.685,6.927,11.934,9.876L291.559,161.775z"/>
							</g>
							<g>
								<path style="fill:#669629;" d="M341.78,151.29c-1.488-2.129-3.054-4.208-4.993-5.92c-0.895-0.929-1.953-1.676-2.944-2.489
									c-1.072-0.71-2.105-1.474-3.247-2.065c-2.238-1.257-4.623-2.198-7.028-3.06c-2.408-0.873-4.885-1.563-7.434-2.116
									l0.006-0.126c1.32-0.085,2.639,0.02,3.947,0.204c0.658,0.075,1.299,0.23,1.952,0.344l1.921,0.497
									c2.549,0.736,4.926,1.982,7.153,3.392c1.143,0.665,2.172,1.503,3.231,2.283c0.979,0.884,2.018,1.698,2.888,2.691
									c1.859,1.869,3.309,4.078,4.657,6.302L341.78,151.29z"/>
							</g>
							<g>
								<path style="fill:#669629;" d="M314.023,156.575c-3.985-1.638-7.616-4.058-10.933-6.804
									c-3.306-2.771-6.325-5.876-9.077-9.202c-2.747-3.325-5.311-6.847-7.27-10.725c-1.883-3.867-3.525-8.068-3.465-12.434
									l0.126-0.004c0.662,4.235,2.407,8.144,4.454,11.851c2.055,3.706,4.332,7.312,6.941,10.682
									c2.618,3.36,5.512,6.517,8.701,9.354c3.174,2.844,6.673,5.381,10.573,7.166L314.023,156.575z"/>
							</g>
							<g>
								<path style="fill:#669629;" d="M270.841,164.57c-4.425-2.751-8.401-6.204-11.934-10.046
									c-3.509-3.868-6.592-8.142-9.05-12.779c-2.44-4.621-4.369-9.664-4.74-14.987c-0.156-2.646,0.015-5.335,0.711-7.899
									c0.688-2.561,1.867-4.985,3.503-7.027l0.104,0.072c-2.687,4.468-3.622,9.699-3.062,14.75
									c0.512,5.062,2.1,10.019,4.382,14.631c2.301,4.609,5.242,8.907,8.624,12.821c3.375,3.917,7.211,7.474,11.531,10.359
									L270.841,164.57z"/>
							</g>
						</g>
					</g>
					<path style="opacity:0.5;fill:#8AC843;" d="M315.42,109.875c-34.379-33.428-77.311-14.216-67.168,3.167
						c-16.569,3.287-17.994,20.169-10.418,32.411c8.816,14.247,34.222,25.645,58.883,15.808c24.661-9.837,36.36-2.8,45.94,4.1
						C346.113,157.169,337.187,131.04,315.42,109.875z M339.737,160.375c0,0-10.583-14.216-34.793-9.834
						c-28.503,5.159-75.794,1.248-65.432-25.959c6.806-17.87,56.167-5.48,73.395,9.561c17.228,15.041-15.072-18.255-41.998-25.887
						c-26.926-7.633,7.274-26.218,38.421-2.2C340.478,130.073,339.737,160.375,339.737,160.375z"/>
					<path style="opacity:0.5;fill:#8AC843;" d="M321.234,122.793c-6.959-8.106-14.612-14.896-24.445-19.317
						c-4.799-2.158-9.787-3.745-14.961-4.705c-3.419-0.635-14.531-3.108-13.421,3.364c0.111,0.644,0.91,1.33,1.498,1.509
						c2.212,0.674,4.556,0.62,6.838,0.884c2.22,0.256,4.418,0.636,6.604,1.098c4.39,0.926,8.683,2.193,12.838,3.894
						c8.374,3.428,16.886,8.049,23.283,14.556C320.293,124.914,322.037,123.729,321.234,122.793z"/>
					<path style="opacity:0.5;fill:#8AC843;" d="M310.271,138.488c-9.307-7.587-19.12-13.582-30.877-16.523
						c-5.738-1.435-11.571-2.202-17.485-2.238c-3.909-0.024-16.694-0.556-14.181,6.384c0.25,0.691,1.271,1.29,1.957,1.372
						c2.581,0.307,5.164-0.218,7.741-0.379c2.507-0.157,5.014-0.172,7.524-0.095c5.04,0.154,10.042,0.704,14.976,1.762
						c9.945,2.132,20.279,5.556,28.648,11.486C309.651,141.022,311.345,139.364,310.271,138.488z"/>
				</g>
			</g>
			<g>
				<g>
					<g>
						<path style="fill:#009140;" d="M147.335,313.763c-2.093,0-3.815-1.583-4.035-3.617c-0.055-0.271-0.17-0.732-0.335-1.414
							c-8.484-35.104-17.013-102.194-24.014-188.912c-0.179-2.235,1.486-4.192,3.72-4.372c2.212-0.205,4.192,1.483,4.373,3.719
							c6.968,86.309,15.426,152.954,23.813,187.658c0.423,1.755,0.537,2.227,0.537,2.879
							C151.394,311.946,149.577,313.763,147.335,313.763z M143.277,309.704c0,0.082-0.003,0.207,0.017,0.373
							C143.283,309.955,143.277,309.83,143.277,309.704z"/>
						<path style="fill:#00682A;" d="M147.335,314.576c-2.493,0-4.574-1.866-4.842-4.341c-0.033-0.141-0.116-0.482-0.233-0.965
							l-0.083-0.346c-8.494-35.143-17.03-102.279-24.035-189.038c-0.104-1.297,0.303-2.556,1.146-3.547
							c0.843-0.991,2.021-1.595,3.318-1.698c1.264-0.127,2.519,0.279,3.517,1.115c1.01,0.85,1.624,2.037,1.731,3.347
							c6.964,86.267,15.414,152.867,23.792,187.533c0.431,1.785,0.561,2.323,0.561,3.07
							C152.206,312.391,150.021,314.576,147.335,314.576z M144.098,310.005c0.199,1.714,1.582,2.948,3.238,2.948
							c1.791,0,3.247-1.457,3.247-3.247c0-0.536-0.09-0.926-0.513-2.683c-8.399-34.752-16.864-101.441-23.835-187.79
							c-0.071-0.872-0.481-1.666-1.157-2.234c-0.661-0.555-1.487-0.834-2.332-0.74c-0.874,0.07-1.659,0.473-2.221,1.132
							c-0.562,0.661-0.833,1.502-0.763,2.366c6.998,86.676,15.519,153.722,23.994,188.787l0.083,0.344
							c0.082,0.336,0.147,0.607,0.197,0.818h0.054c0,0.1,0.006,0.201,0.014,0.3H144.098z"/>
					</g>
					<path style="opacity:0.5;fill:#009140;" d="M150.857,306.826c-8.388-34.704-16.845-101.349-23.813-187.658
						c-0.181-2.236-2.161-3.923-4.373-3.719c-0.327,0.026-0.637,0.101-0.936,0.199c1.021,0.664,1.75,1.77,1.856,3.075
						c6.968,86.309,15.426,152.954,23.813,187.658c0.423,1.755,0.537,2.227,0.537,2.879c0,1.804-1.185,3.316-2.813,3.844
						c0.636,0.414,1.391,0.66,2.207,0.66c2.242,0,4.059-1.817,4.059-4.059C151.394,309.053,151.28,308.581,150.857,306.826z"/>
				</g>
				<g>
					<g>
						<g>
							<path style="fill:#268B36;" d="M113.177,101.489c-9.864-26.197-54.789-13.24-71.376,29.795
								c-13.424,34.829-11.883,64.357-30.451,66.096c0,0,14.839,3.719,33.167-10.888c18.328-14.607,68.773-0.379,92.048-33.422
								C160.804,118.658,130.804,92.047,113.177,101.489z"/>
							<path style="fill:#166821;" d="M16.077,198.639c-2.948,0-4.719-0.42-4.926-0.471c-0.384-0.097-0.642-0.455-0.612-0.85
								c0.03-0.395,0.34-0.71,0.734-0.747c11.804-1.105,15.242-14.582,20-33.238c2.472-9.692,5.274-20.678,9.77-32.342
								C52.141,102.199,75.436,87.17,92.765,87.17c0.039,0,0.077,0,0.116,0.002c9.719,0.036,17.222,4.833,20.724,13.195
								c7.99-3.735,18.303-0.882,25.41,7.151c8.245,9.316,12.106,26.299-1.786,46.022c-14.375,20.409-38.558,23.006-59.893,25.299
								c-13.588,1.459-25.323,2.719-32.312,8.289C32.711,196.939,22.01,198.639,16.077,198.639z M92.764,88.793
								c-16.774,0-39.37,14.672-50.206,42.782c-4.461,11.574-7.25,22.511-9.711,32.159c-4.239,16.621-7.465,29.27-16.547,33.233
								c5.719-0.076,16.022-1.793,27.712-11.11c7.358-5.865,19.311-7.149,33.15-8.636c20.993-2.255,44.787-4.811,58.74-24.618
								c13.347-18.949,9.731-35.157,1.897-44.011c-6.846-7.734-16.815-10.357-24.237-6.388c-0.208,0.114-0.45,0.127-0.669,0.044
								c-0.219-0.082-0.392-0.255-0.474-0.474c-3.139-8.334-10.078-12.943-19.543-12.979C92.838,88.793,92.8,88.793,92.764,88.793z"
								/>
						</g>
						<path style="fill:#166821;" d="M11.331,197.219c5.872-0.887,11.299-3.715,15.639-7.695c4.411-3.919,8.096-8.592,11.489-13.439
							c3.405-4.85,6.55-9.894,9.708-14.944l4.769-7.574c1.658-2.523,3.392-5.006,5.31-7.345
							c7.557-9.461,17.045-17.297,27.245-23.581c5.09-3.171,10.297-6.078,15.336-9.149c2.507-1.548,4.976-3.16,7.162-5.076
							c1.106-0.943,2.132-1.97,3.021-3.114c0.847-1.167,1.56-2.44,2.009-3.846c0.024-0.086,0.114-0.137,0.201-0.113
							c0.078,0.022,0.126,0.103,0.117,0.181c-0.223,1.504-0.78,2.96-1.544,4.297c-0.787,1.32-1.739,2.536-2.775,3.663
							c-2.11,2.221-4.512,4.085-6.923,5.885c-4.856,3.567-9.944,6.674-14.84,10c-9.822,6.551-19.379,13.533-27.007,22.51
							c-1.923,2.218-3.669,4.58-5.348,6.988l-4.957,7.417c-3.295,4.963-6.593,9.948-10.168,14.755
							c-3.607,4.772-7.523,9.391-12.173,13.23c-4.573,3.901-10.263,6.602-16.231,7.274c-0.089,0.01-0.169-0.054-0.179-0.143
							C11.179,197.311,11.245,197.232,11.331,197.219z"/>
						<g>
							<path style="fill:#166821;" d="M110.28,107.075c-4.483-1.728-9.058-3.019-13.735-3.824c-4.66-0.838-9.38-1.459-14.138-1.515
								c-4.751-0.044-9.523,0.377-14.162,1.44c-4.63,1.045-9.182,2.737-13.102,5.503l-0.098-0.129
								c3.815-2.96,8.351-4.889,13.004-6.161c4.677-1.24,9.512-1.833,14.351-1.952c4.836-0.121,9.722,0.151,14.467,1.222
								c4.716,1.11,9.387,2.69,13.488,5.271L110.28,107.075z"/>
							<path style="fill:#166821;" d="M86.247,122.9c-4.039-1.036-8.11-1.621-12.198-1.564c-4.073,0.02-8.17,0.368-12.165,1.337
								c-3.985,0.977-7.856,2.479-11.458,4.485c-3.612,1.984-6.971,4.482-9.811,7.516l-0.122-0.107
								c5.406-6.398,12.97-10.83,21.059-13.148c4.045-1.166,8.282-1.901,12.533-1.704c4.227,0.235,8.473,1.111,12.221,3.035
								L86.247,122.9z"/>
							<path style="fill:#166821;" d="M71.712,134.701c-3.917,0.473-7.698,1.351-11.356,2.649
								c-3.653,1.278-7.277,2.698-10.701,4.556c-3.409,1.868-6.651,4.081-9.501,6.734c-2.839,2.631-5.378,5.748-6.62,9.487
								l-0.157-0.043c1.044-3.847,3.459-7.182,6.21-10.025c2.8-2.83,6.015-5.225,9.423-7.28c3.406-2.052,7.008-3.86,10.857-4.977
								c3.844-1.054,7.878-1.724,11.846-1.263L71.712,134.701z"/>
							<path style="fill:#166821;" d="M51.414,158.177c-2.532,1.823-4.732,3.908-6.782,6.17c-2.044,2.257-4.1,4.543-6.057,6.942
								c-1.95,2.401-3.857,4.861-5.907,7.213c-2.073,2.321-4.296,4.577-6.937,6.252l-0.09-0.135
								c2.494-1.839,4.515-4.201,6.402-6.635c1.903-2.429,3.67-4.972,5.502-7.486c1.824-2.515,3.643-5.088,5.924-7.284
								c2.268-2.176,4.887-4.131,7.87-5.181L51.414,158.177z"/>
							<path style="fill:#166821;" d="M55.173,152.484c0.796,3.331,0.753,6.81,0.319,10.199c-0.462,3.397-1.497,6.701-2.866,9.825
								c-1.368,3.121-2.932,6.166-4.924,8.919c-0.919,1.428-2.063,2.69-3.118,4.01c-1.091,1.29-2.322,2.458-3.471,3.687
								l-0.116-0.113c1.068-1.301,2.211-2.534,3.209-3.88c0.96-1.375,2.004-2.685,2.818-4.15c1.827-2.797,3.211-5.853,4.394-8.948
								c1.174-3.114,1.821-6.374,2.472-9.608c0.635-3.248,1.029-6.548,1.123-9.918L55.173,152.484z"/>
							<path style="fill:#166821;" d="M67.978,137.932c1.881,3.274,3.029,6.895,3.915,10.562c0.825,3.691,1.015,7.514,0.794,11.29
								c-0.274,3.78-1.107,7.519-2.581,11c-1.525,3.485-3.938,6.451-6.636,9.02l-0.111-0.119c2.535-2.714,4.716-5.75,5.997-9.213
								c1.28-3.441,1.925-7.083,2.033-10.744c0.038-3.674-0.497-7.307-1.09-10.922c-0.577-3.629-1.464-7.215-2.47-10.809
								L67.978,137.932z"/>
							<path style="fill:#166821;" d="M85.187,124.796c1.861,4.193,3.039,8.637,3.994,13.118c0.895,4.499,1.239,9.102,1.22,13.69
								c0.003,4.585-0.44,9.197-1.595,13.645c-1.158,4.439-3.144,8.69-6.037,12.23l-0.127-0.101
								c2.705-3.653,4.447-7.917,5.376-12.32c0.976-4.399,1.25-8.933,1.085-13.433c-0.156-4.509-0.848-8.971-1.52-13.428
								c-0.652-4.468-1.582-8.896-2.548-13.348L85.187,124.796z"/>
							<path style="fill:#166821;" d="M106.852,110.438c3.779,4.344,6.462,9.561,8.421,14.996c1.906,5.476,2.629,11.34,2.394,17.112
								c-0.235,5.783-1.592,11.491-3.867,16.77c-2.336,5.26-5.507,10.099-9.225,14.433l-0.125-0.104
								c3.543-4.462,6.501-9.383,8.6-14.641c2.09-5.256,3.25-10.868,3.318-16.494c0.051-5.635-0.993-11.207-2.639-16.573
								c-1.633-5.381-4.014-10.553-7.004-15.398L106.852,110.438z"/>
						</g>
					</g>
					<path style="opacity:0.5;fill:#36A342;" d="M113.177,101.489c-9.864-26.197-54.789-13.24-71.376,29.795
						c-13.424,34.829-11.883,64.357-30.451,66.096c0,0,14.839,3.719,33.167-10.887c18.328-14.607,68.773-0.379,92.048-33.422
						C160.804,118.658,130.804,92.047,113.177,101.489z M112.414,156.22c-39.019,17.727-60.557,6.362-84.145,32.849
						c0,0,7.91-46.032,19.892-65.937c14.317-23.784,38.183-35.855,51.823-30.675c13.639,5.179,1.805,20.499-18.952,35.111
						c0,0,17.87-7.674,33.455-21.262C128.589,94.01,163.128,133.18,112.414,156.22z"/>
					<path style="opacity:0.5;fill:#36A342;" d="M92.725,95.083c-6.526-0.678-13.334,2.728-18.861,5.843
						c-5.888,3.318-11.344,7.735-15.691,12.926c-8.628,10.302-13.632,23.353-14.147,36.771c-0.021,0.557,0.891,0.424,0.95-0.048
						c1.605-12.771,7.222-24.883,16.207-34.138c4.274-4.403,9.135-8.121,14.489-11.122c5.471-3.066,11.604-4.468,17.126-7.36
						C93.988,97.331,94.543,95.272,92.725,95.083z"/>
					<path style="opacity:0.5;fill:#36A342;" d="M122.379,106.934c-0.348-1.282-1.964-1.173-2.824-0.599
						c-2.063,1.375-3.28,3.892-4.861,5.755c-1.634,1.925-3.544,3.541-5.618,4.973c-4.825,3.332-10.031,5.803-15.401,8.129
						c-10.258,4.443-19.734,9.87-27.419,18.121c-4.024,4.321-7.331,9.309-9.959,14.588c-0.431,0.867,0.821,1.149,1.232,0.433
						c5.453-9.499,13.324-17.677,22.686-23.379c10.123-6.165,22.639-7.291,32.383-14.102c2.486-1.738,4.829-3.788,6.764-6.13
						C121.045,112.685,123.135,109.718,122.379,106.934z"/>
				</g>
			</g>
			<g>
				<g>
					<g>
						<path style="fill:#009140;" d="M194.903,327.072c0-0.652,0.114-1.123,0.537-2.879c8.387-34.704,16.845-101.349,23.813-187.658
							c0.181-2.236,2.161-3.923,4.373-3.719c2.234,0.18,3.899,2.137,3.72,4.372c-7.002,86.719-15.53,153.809-24.014,188.913
							c-0.165,0.681-0.279,1.142-0.335,1.413c-0.22,2.034-1.942,3.617-4.035,3.617C196.72,331.13,194.903,329.313,194.903,327.072z
							 M203.003,327.445c0.021-0.166,0.018-0.291,0.018-0.373C203.021,327.198,203.014,327.322,203.003,327.445z"/>
						<path style="fill:#00682A;" d="M198.962,331.942c-2.686,0-4.871-2.185-4.871-4.871c0-0.745,0.128-1.28,0.556-3.049
							c8.383-34.685,16.832-101.285,23.797-187.552c0.106-1.31,0.721-2.499,1.731-3.349c0.995-0.836,2.245-1.226,3.525-1.115
							c2.667,0.216,4.669,2.57,4.455,5.246c-7.005,86.758-15.541,153.895-24.035,189.038l-0.077,0.319
							c-0.12,0.496-0.206,0.845-0.251,1.067C203.536,330.076,201.454,331.942,198.962,331.942z M223.265,133.611
							c-0.746,0-1.461,0.262-2.045,0.753c-0.676,0.569-1.087,1.362-1.157,2.236c-6.972,86.35-15.436,153.04-23.834,187.784
							c-0.426,1.765-0.515,2.153-0.515,2.688c0,1.79,1.456,3.247,3.247,3.247c1.662,0,3.05-1.243,3.228-2.892
							c0.003-0.017,0.007-0.035,0.01-0.052l-0.005-0.002c0.009-0.1,0.014-0.2,0.014-0.301h0.056c0.053-0.235,0.12-0.507,0.201-0.845
							l0.077-0.317c8.475-35.064,16.996-102.11,23.994-188.786c0.143-1.785-1.191-3.355-2.976-3.499
							C223.462,133.616,223.364,133.611,223.265,133.611z"/>
					</g>
					<path style="opacity:0.5;fill:#009140;" d="M195.44,324.193c8.387-34.704,16.845-101.349,23.813-187.658
						c0.181-2.236,2.161-3.923,4.373-3.719c0.327,0.026,0.637,0.101,0.936,0.199c-1.021,0.664-1.75,1.769-1.856,3.075
						c-6.968,86.309-15.426,152.954-23.813,187.658c-0.423,1.755-0.538,2.227-0.538,2.879c0,1.805,1.185,3.316,2.813,3.844
						c-0.636,0.414-1.391,0.66-2.207,0.66c-2.242,0-4.059-1.817-4.059-4.059C194.903,326.42,195.017,325.948,195.44,324.193z"/>
				</g>
				<g>
					<g>
						<g>
							<path style="fill:#268B36;" d="M235.911,130.596c9.863-26.196,54.789-13.239,71.376,29.795
								c13.425,34.829,11.884,64.357,30.451,66.096c0,0-14.839,3.719-33.167-10.888c-18.328-14.607-68.773-0.379-92.048-33.422
								C188.284,147.765,218.285,121.155,235.911,130.596z"/>
							<path style="fill:#166821;" d="M333.012,227.746c-5.933,0-16.633-1.698-28.945-11.512c-6.99-5.57-18.724-6.831-32.312-8.289
								c-21.336-2.293-45.519-4.89-59.894-25.299c-13.892-19.722-10.031-36.705-1.785-46.022c7.103-8.032,17.419-10.886,25.41-7.151
								c3.502-8.362,11.004-13.158,20.723-13.195c0.038-0.002,0.078-0.002,0.116-0.002c17.329,0,40.623,15.028,51.721,43.822
								c4.496,11.663,7.298,22.649,9.77,32.342c4.758,18.654,8.196,32.132,20.001,33.237c0.393,0.036,0.703,0.352,0.733,0.747
								c0.03,0.395-0.228,0.753-0.612,0.85C337.73,227.326,335.958,227.746,333.012,227.746z M228.007,129.473
								c-5.82,0-12.006,2.903-16.717,8.226c-7.833,8.854-11.449,25.063,1.897,44.011c13.953,19.808,37.747,22.364,58.741,24.618
								c13.839,1.487,25.792,2.771,33.15,8.636c11.69,9.316,21.993,11.034,27.712,11.11c-9.083-3.964-12.309-16.612-16.548-33.233
								c-2.462-9.65-5.25-20.585-9.711-32.159c-10.835-28.108-33.432-42.782-50.205-42.782c-0.038,0-0.074,0-0.112,0.002
								c-9.464,0.036-16.404,4.646-19.542,12.979c-0.083,0.219-0.255,0.392-0.474,0.474c-0.219,0.081-0.463,0.067-0.668-0.044
								C233.211,130.071,230.647,129.473,228.007,129.473z"/>
						</g>
						<path style="fill:#166821;" d="M337.72,226.648c-5.969-0.672-11.658-3.373-16.231-7.274c-4.65-3.838-8.567-8.457-12.173-13.23
							c-3.575-4.807-6.873-9.792-10.168-14.755l-4.957-7.417c-1.679-2.408-3.426-4.77-5.348-6.988
							c-7.627-8.977-17.185-15.959-27.007-22.51c-4.896-3.326-9.984-6.433-14.84-10c-2.412-1.8-4.814-3.664-6.923-5.885
							c-1.036-1.127-1.987-2.343-2.775-3.663c-0.764-1.337-1.321-2.793-1.544-4.297c-0.013-0.089,0.048-0.172,0.137-0.185
							c0.08-0.012,0.157,0.042,0.181,0.117c0.449,1.407,1.162,2.68,2.009,3.846c0.889,1.145,1.915,2.172,3.021,3.115
							c2.186,1.915,4.655,3.528,7.162,5.076c5.04,3.071,10.246,5.977,15.336,9.149c10.2,6.283,19.688,14.12,27.245,23.581
							c1.917,2.339,3.651,4.821,5.31,7.345l4.769,7.575c3.158,5.049,6.302,10.094,9.708,14.944
							c3.393,4.847,7.078,9.52,11.489,13.439c4.341,3.98,9.767,6.808,15.639,7.695c0.089,0.011,0.152,0.092,0.142,0.181
							C337.889,226.594,337.807,226.656,337.72,226.648z"/>
						<g>
							<path style="fill:#166821;" d="M238.735,136.038c4.101-2.58,8.771-4.161,13.488-5.271c4.745-1.072,9.631-1.343,14.467-1.222
								c4.839,0.118,9.674,0.712,14.351,1.952c4.653,1.272,9.189,3.201,13.004,6.161l-0.098,0.13
								c-3.92-2.766-8.472-4.458-13.102-5.503c-4.64-1.063-9.411-1.485-14.162-1.44c-4.758,0.056-9.479,0.677-14.138,1.515
								c-4.677,0.805-9.252,2.096-13.735,3.824L238.735,136.038z"/>
							<path style="fill:#166821;" d="M262.783,151.856c3.747-1.924,7.994-2.8,12.221-3.035c4.25-0.196,8.488,0.538,12.533,1.704
								c8.088,2.318,15.653,6.75,21.059,13.149l-0.122,0.107c-2.84-3.034-6.2-5.532-9.811-7.516
								c-3.602-2.006-7.473-3.508-11.458-4.485c-3.995-0.969-8.092-1.316-12.165-1.337c-4.088-0.057-8.16,0.528-12.199,1.564
								L262.783,151.856z"/>
							<path style="fill:#166821;" d="M277.375,163.646c3.968-0.461,8.002,0.21,11.846,1.263c3.849,1.117,7.451,2.925,10.857,4.977
								c3.408,2.055,6.622,4.449,9.423,7.28c2.751,2.843,5.165,6.178,6.21,10.025l-0.157,0.043c-1.242-3.739-3.781-6.856-6.62-9.487
								c-2.851-2.653-6.093-4.866-9.501-6.734c-3.423-1.858-7.048-3.278-10.701-4.556c-3.658-1.299-7.44-2.176-11.356-2.649
								L277.375,163.646z"/>
							<path style="fill:#166821;" d="M297.749,187.14c2.983,1.05,5.602,3.005,7.87,5.181c2.28,2.196,4.099,4.769,5.923,7.283
								c1.832,2.514,3.599,5.058,5.502,7.486c1.887,2.434,3.908,4.796,6.402,6.635l-0.09,0.135
								c-2.641-1.675-4.864-3.931-6.937-6.252c-2.05-2.352-3.957-4.811-5.907-7.213c-1.957-2.399-4.013-4.686-6.057-6.942
								c-2.05-2.262-4.249-4.347-6.782-6.17L297.749,187.14z"/>
							<path style="fill:#166821;" d="M294.076,181.615c0.095,3.37,0.488,6.669,1.123,9.918c0.651,3.234,1.297,6.494,2.472,9.608
								c1.183,3.095,2.566,6.151,4.394,8.948c0.814,1.465,1.858,2.775,2.818,4.15c0.997,1.346,2.141,2.579,3.209,3.88l-0.116,0.113
								c-1.149-1.229-2.38-2.397-3.471-3.687c-1.054-1.32-2.198-2.582-3.117-4.011c-1.993-2.753-3.557-5.798-4.924-8.919
								c-1.369-3.124-2.404-6.428-2.866-9.825c-0.434-3.389-0.477-6.868,0.319-10.199L294.076,181.615z"/>
							<path style="fill:#166821;" d="M281.259,167.105c-1.006,3.594-1.892,7.181-2.47,10.809c-0.593,3.616-1.128,7.249-1.09,10.922
								c0.107,3.662,0.753,7.303,2.033,10.744c1.281,3.462,3.462,6.498,5.997,9.213l-0.11,0.119
								c-2.698-2.569-5.111-5.535-6.636-9.02c-1.473-3.481-2.306-7.22-2.581-11c-0.22-3.777-0.031-7.599,0.794-11.291
								c0.885-3.667,2.034-7.288,3.915-10.562L281.259,167.105z"/>
							<path style="fill:#166821;" d="M264.054,153.957c-0.966,4.453-1.896,8.88-2.548,13.349c-0.672,4.457-1.364,8.919-1.52,13.428
								c-0.164,4.499,0.11,9.034,1.085,13.433c0.929,4.403,2.671,8.667,5.375,12.32l-0.127,0.101
								c-2.894-3.539-4.879-7.79-6.037-12.23c-1.155-4.448-1.598-9.061-1.595-13.645c-0.02-4.588,0.324-9.191,1.22-13.69
								c0.955-4.481,2.133-8.925,3.994-13.118L264.054,153.957z"/>
							<path style="fill:#166821;" d="M242.364,139.646c-2.99,4.845-5.371,10.017-7.004,15.398
								c-1.646,5.366-2.69,10.938-2.639,16.573c0.069,5.627,1.228,11.238,3.318,16.494c2.099,5.257,5.057,10.179,8.6,14.64
								l-0.125,0.104c-3.717-4.334-6.889-9.173-9.225-14.433c-2.276-5.279-3.632-10.986-3.867-16.77
								c-0.235-5.772,0.487-11.636,2.394-17.112c1.959-5.435,4.642-10.652,8.421-14.996L242.364,139.646z"/>
						</g>
					</g>
					<path style="opacity:0.5;fill:#36A342;" d="M212.524,182.178c23.275,33.043,73.72,18.815,92.048,33.422
						c18.328,14.607,33.167,10.887,33.167,10.887c-18.568-1.738-17.027-31.267-30.451-66.096
						c-16.587-43.035-61.513-55.992-71.377-29.795C218.285,121.154,188.284,147.765,212.524,182.178z M234.602,135.413
						c15.585,13.588,33.455,21.262,33.455,21.262c-20.757-14.612-32.592-29.932-18.952-35.111
						c13.639-5.179,37.506,6.892,51.823,30.675c11.982,19.905,19.892,65.937,19.892,65.937
						c-23.588-26.487-45.126-15.122-84.145-32.849C185.96,162.287,220.5,123.117,234.602,135.413z"/>
					<path style="opacity:0.5;fill:#36A342;" d="M256.364,124.19c6.526-0.678,13.334,2.728,18.86,5.843
						c5.888,3.318,11.344,7.735,15.691,12.926c8.628,10.302,13.632,23.353,14.147,36.771c0.021,0.557-0.891,0.424-0.95-0.048
						c-1.605-12.771-7.221-24.882-16.207-34.138c-4.274-4.403-9.135-8.121-14.489-11.122c-5.471-3.066-11.604-4.468-17.126-7.36
						C255.1,126.439,254.545,124.379,256.364,124.19z"/>
					<path style="opacity:0.5;fill:#36A342;" d="M226.709,136.041c0.348-1.282,1.964-1.173,2.824-0.599
						c2.064,1.375,3.28,3.893,4.861,5.755c1.634,1.925,3.544,3.541,5.618,4.973c4.825,3.332,10.031,5.803,15.401,8.129
						c10.258,4.443,19.734,9.87,27.419,18.121c4.024,4.321,7.331,9.309,9.959,14.588c0.431,0.867-0.821,1.149-1.232,0.433
						c-5.453-9.499-13.324-17.677-22.686-23.379c-10.123-6.165-22.639-7.291-32.383-14.102c-2.486-1.738-4.829-3.788-6.764-6.13
						C228.044,141.792,225.953,138.825,226.709,136.041z"/>
				</g>
			</g>
			<g>
				<g>
					<g>
						<path style="fill:#009140;" d="M178.526,311.038c-0.008,0-0.016,0-0.024,0c-2.232-0.013-4.035-1.815-4.035-4.047l0.011-0.566
							c0.463-20.404,1.356-129.121-26.634-265.978c-0.449-2.196,0.967-4.341,3.163-4.79c2.196-0.452,4.341,0.966,4.79,3.163
							c28.164,137.71,27.263,247.232,26.795,267.789l-0.008,0.407C182.558,309.239,180.747,311.038,178.526,311.038z"/>
						<path style="fill:#00682A;" d="M178.526,311.85h-0.024c-2.675-0.017-4.847-2.198-4.847-4.86l0.011-0.582
							c0.463-20.392,1.354-129.032-26.617-265.798c-0.261-1.275-0.009-2.575,0.707-3.661c0.717-1.086,1.814-1.827,3.089-2.088
							c1.27-0.257,2.572-0.011,3.658,0.706c1.087,0.717,1.83,1.815,2.09,3.092c28.187,137.819,27.28,247.401,26.812,267.969
							l-0.008,0.404C183.364,309.686,181.179,311.85,178.526,311.85z M151.83,36.385c-0.219,0-0.44,0.022-0.66,0.067
							c-0.85,0.174-1.582,0.669-2.059,1.392c-0.478,0.725-0.646,1.592-0.473,2.442c28.006,136.937,27.113,245.738,26.65,266.158
							l-0.011,0.563c0,1.757,1.448,3.209,3.229,3.22l0.018,0.812v-0.812c1.769,0,3.226-1.444,3.247-3.22l0.008-0.414
							c0.468-20.539,1.372-129.96-26.779-267.609c-0.174-0.851-0.669-1.584-1.394-2.061
							C153.072,36.568,152.458,36.385,151.83,36.385z"/>
					</g>
					<path style="opacity:0.5;fill:#009140;" d="M155.797,38.82c-0.449-2.197-2.594-3.615-4.79-3.163
						c-0.148,0.03-0.283,0.087-0.424,0.132c0.877,0.572,1.535,1.479,1.761,2.586c28.164,137.71,27.263,247.232,26.795,267.789
						l-0.008,0.407c-0.022,1.788-1.204,3.283-2.818,3.808c0.631,0.41,1.379,0.655,2.188,0.66c0.008,0,0.016,0,0.024,0
						c2.221,0,4.032-1.799,4.059-4.022l0.008-0.407C183.06,286.052,183.961,176.53,155.797,38.82z"/>
				</g>
				<g>
					<g>
						<g>
							<path style="fill:#36A342;" d="M167.993,26.952c0.333-26.027,63.925-19.487,76.574,41.226
								c12.649,60.713-5.947,90.23-11.972,76.199c-6.026-14.031-9.097-26.168-42.988-31.688
								c-33.892-5.52-54.466-35.077-54.751-56.744C134.611,37.327,147.434,19.561,167.993,26.952z"/>
							<path style="fill:#217A29;" d="M236.429,148.623c-1.33,0-3.189-0.688-4.58-3.926c-0.365-0.85-0.718-1.692-1.069-2.526
								c-5.314-12.645-9.903-23.566-41.305-28.682c-32.775-5.339-55.123-34.059-55.432-57.534
								c-0.151-11.528,4.505-22.075,12.151-27.528c5.946-4.24,13.2-5.132,21.04-2.592c0.645-7.714,6.997-13.028,16.855-13.981
								c20.2-1.944,52.528,14.186,61.273,56.159c10.151,48.723,0.512,77.824-7.736,80.424
								C237.331,148.531,236.915,148.623,236.429,148.623z M158.788,26.052c-4.263,0-8.202,1.238-11.651,3.698
								c-7.219,5.147-11.614,15.18-11.47,26.183c0.261,19.808,19.196,50.274,54.07,55.955c32.289,5.259,37.039,16.564,42.54,29.654
								c0.349,0.831,0.701,1.67,1.064,2.515c0.696,1.619,1.924,3.425,3.797,2.833c6.142-1.938,17.135-28.146,6.635-78.547
								c-8.54-40.989-39.929-56.759-59.528-54.874c-9.572,0.926-15.345,5.969-15.441,13.493l-0.014,1.138l-1.072-0.385
								C164.63,26.606,161.637,26.052,158.788,26.052z"/>
						</g>
						<g>
							<path style="fill:#36A342;" d="M167.993,26.952c0.333-26.027,63.925-19.487,76.574,41.226
								c12.649,60.713-5.947,90.23-11.972,76.199c-6.026-14.031-9.097-26.168-42.988-31.688
								c-33.892-5.52-54.466-35.077-54.751-56.744C134.611,37.327,147.434,19.561,167.993,26.952z"/>
							<path style="fill:#217A29;" d="M236.429,148.623c-1.33,0-3.189-0.688-4.58-3.926c-0.365-0.85-0.718-1.692-1.069-2.526
								c-5.314-12.645-9.903-23.566-41.305-28.682c-32.775-5.339-55.123-34.059-55.432-57.534
								c-0.151-11.528,4.505-22.075,12.151-27.528c5.946-4.24,13.2-5.132,21.04-2.592c0.645-7.714,6.997-13.028,16.855-13.981
								c20.2-1.944,52.528,14.186,61.273,56.159c10.151,48.723,0.512,77.824-7.736,80.424
								C237.331,148.531,236.915,148.623,236.429,148.623z M158.788,26.052c-4.263,0-8.202,1.238-11.651,3.698
								c-7.219,5.147-11.614,15.18-11.47,26.183c0.261,19.808,19.196,50.274,54.07,55.955c32.289,5.259,37.039,16.564,42.54,29.654
								c0.349,0.831,0.701,1.67,1.064,2.515c0.696,1.619,1.924,3.425,3.797,2.833c6.142-1.938,17.135-28.146,6.635-78.547
								c-8.54-40.989-39.929-56.759-59.528-54.874c-9.572,0.926-15.345,5.969-15.441,13.493l-0.014,1.138l-1.072-0.385
								C164.63,26.606,161.637,26.052,158.788,26.052z"/>
						</g>
						<g>
							<path style="fill:#217A29;" d="M151.76,26.264c1.623-0.526,3.223-1.315,4.965-1.487c0.859-0.12,1.719-0.371,2.591-0.382
								l2.631-0.067c3.492,0.198,7.004,0.883,10.259,2.191c6.586,2.493,12.394,6.565,17.676,11.044l3.818,3.535l3.643,3.701
								l3.432,3.885c1.12,1.314,2.185,2.671,3.279,4.004c4.259,5.426,8.154,11.095,11.762,16.968
								c0.959,1.43,1.798,2.934,2.624,4.444l2.511,4.509c1.596,3.046,3.054,6.166,4.522,9.271l1.986,4.759l0.993,2.378l0.866,2.427
								l1.731,4.853l1.488,4.931c3.736,13.189,5.941,26.905,5.27,40.606l-0.325-0.025c0.233-13.629-2.396-27.195-6.504-40.109
								l-1.587-4.838l-1.825-4.753l-0.912-2.375l-1.036-2.324l-2.07-4.646c-1.523-3.028-3.031-6.067-4.674-9.028l-2.579-4.379
								c-0.848-1.466-1.707-2.924-2.685-4.31c-3.714-5.657-7.729-11.138-12.064-16.329c-1.095-1.286-2.163-2.598-3.28-3.862
								l-3.399-3.747l-3.497-3.642l-3.655-3.469c-4.893-4.587-10.345-8.597-16.377-11.379c-2.987-1.479-6.216-2.347-9.499-2.807
								c-3.312-0.485-6.659-0.045-9.965,0.759L151.76,26.264z"/>
						</g>
						<g>
							<g>
								<path style="fill:#217A29;" d="M240.227,53.882c-3.821-3.572-8.015-6.735-12.394-9.565
									c-4.376-2.836-8.996-5.295-13.825-7.192c-4.841-1.88-9.9-3.063-15.007-3.616c-2.557-0.306-5.135-0.296-7.713-0.159
									c-2.581,0.166-5.134,0.635-7.699,1.2l-0.052-0.154c2.431-1.011,4.992-1.763,7.625-2.174
									c2.632-0.385,5.312-0.482,7.978-0.336c2.661,0.215,5.299,0.665,7.868,1.364c2.559,0.731,5.059,1.629,7.493,2.669
									c4.865,2.088,9.462,4.725,13.787,7.723c4.297,3.038,8.371,6.385,12.056,10.128L240.227,53.882z"/>
							</g>
							<g>
								<path style="fill:#217A29;" d="M248.8,92.91c-2.449-4.118-5.314-7.982-8.387-11.638c-3.068-3.665-6.417-7.084-10.018-10.194
									c-3.619-3.106-7.622-5.668-11.683-8.075c-4.086-2.424-8.515-4.085-13.079-5.626l0.032-0.16
									c4.783,0.629,9.49,2.125,13.825,4.354c4.3,2.294,8.215,5.244,11.768,8.529c3.555,3.288,6.822,6.861,9.79,10.66
									c2.931,3.826,5.627,7.83,7.897,12.073L248.8,92.91z"/>
							</g>
							<g>
								<path style="fill:#217A29;" d="M183.547,109.824c-2.952-6.025-5.329-12.321-7.29-18.747
									c-1.894-6.443-3.365-13.039-4.054-19.753c-0.726-6.694-0.77-13.557,0.622-20.226c0.761-3.311,1.756-6.575,3.15-9.671
									c1.446-3.072,3.226-5.972,5.352-8.58l0.132,0.096c-1.737,2.869-3.24,5.834-4.435,8.922
									c-1.138,3.109-2.022,6.297-2.599,9.548c-1.142,6.497-1.464,13.16-0.923,19.791c0.517,6.633,1.814,13.205,3.539,19.651
									c1.739,6.444,3.905,12.798,6.652,18.898L183.547,109.824z"/>
							</g>
							<g>
								<path style="fill:#217A29;" d="M246.207,131.649c-0.231-3.351-0.583-6.699-1.593-9.888
									c-0.373-1.626-1.049-3.159-1.606-4.721c-0.715-1.501-1.352-3.036-2.224-4.452c-1.644-2.883-3.661-5.516-5.753-8.074
									c-2.088-2.572-4.374-4.986-6.832-7.298l0.09-0.136c1.519,0.785,2.913,1.781,4.24,2.854c0.679,0.521,1.287,1.12,1.935,1.682
									l1.799,1.83c2.336,2.514,4.141,5.478,5.67,8.524c0.824,1.498,1.407,3.112,2.061,4.683c0.497,1.632,1.107,3.226,1.41,4.906
									c0.816,3.31,0.952,6.725,0.966,10.089H246.207z"/>
							</g>
							<g>
								<path style="fill:#217A29;" d="M211.915,119.021c-3.326-4.47-5.741-9.571-7.589-14.825
									c-1.82-5.273-3.098-10.727-3.935-16.247c-0.832-5.516-1.327-11.129-0.916-16.733c0.488-5.542,1.466-11.292,4.44-16.092
									l0.142,0.079c-2.087,5.136-2.756,10.632-2.955,16.105c-0.19,5.477-0.067,10.992,0.581,16.466
									c0.665,5.468,1.77,10.896,3.416,16.165c1.625,5.267,3.814,10.41,6.948,14.986L211.915,119.021z"/>
							</g>
							<g>
								<path style="fill:#217A29;" d="M158.717,99.124c-3.073-5.997-5.182-12.473-6.54-19.087
									c-1.314-6.625-1.886-13.417-1.522-20.195c0.372-6.748,1.594-13.624,4.727-19.772c1.59-3.037,3.57-5.905,6.05-8.283
									c2.469-2.38,5.39-4.282,8.564-5.458l0.067,0.149c-5.954,3.164-10.476,8.339-13.219,14.313
									c-2.803,5.953-4.344,12.507-4.887,19.139c-0.519,6.642-0.121,13.367,1.022,19.957c1.133,6.591,3.016,13.089,5.885,19.164
									L158.717,99.124z"/>
							</g>
						</g>
					</g>
					<path style="opacity:0.5;fill:#36A342;" d="M134.856,55.945c0.285,21.667,20.859,51.224,54.751,56.744
						c33.892,5.52,36.963,17.658,42.988,31.688c6.026,14.031,24.621-15.486,11.972-76.199
						c-12.649-60.713-76.241-67.253-76.574-41.226C147.434,19.56,134.611,37.327,134.856,55.945z M170.187,34.011
						c31.115,8.375,61.147,76.083,62.118,78.078c0,0-4.128-42.806-37.497-73.952c-20.528-19.16-4.226-22.72,6.812-18.888
						c11.038,3.832,40.927,17.199,44.717,69.822c2.653,36.828-8.982,51.819-8.982,51.819c-5.464-26.719-27.947-26.343-59.65-47.705
						C146.001,71.824,139.072,25.637,170.187,34.011z"/>
					<path style="opacity:0.5;fill:#36A342;" d="M200.08,22.89c3.256,0.105,5.972,1.685,8.73,3.283
						c2.634,1.527,5.162,3.237,7.56,5.114c4.73,3.701,8.915,8.237,12.414,13.108c7.445,10.365,11.969,22.629,12.84,35.375
						c0.517,7.564-0.425,15.125-2.445,22.421c-0.151,0.547-0.993,0.127-0.883-0.372c2.771-12.59,1.654-26.237-3.07-38.235
						c-4.199-10.666-11.419-19.859-20.528-26.776c-2.429-1.845-4.909-3.608-7.545-5.148c-2.826-1.651-5.909-2.815-8.312-5.091
						C197.626,25.419,198.177,22.829,200.08,22.89z"/>
					<path style="opacity:0.5;fill:#36A342;" d="M163.884,37.495c21.447,8.373,39.355,25.06,49.134,45.927
						c2.739,5.845,4.747,11.963,6.058,18.281c0.135,0.653-0.896,0.629-1.05,0.085c-5.929-21.017-19.673-39.7-38.243-51.265
						c-5.24-3.263-10.809-5.947-16.64-7.975c-1.353-0.471-2.512-1.815-2.284-3.323C161.064,37.867,162.582,36.987,163.884,37.495z"
						/>
				</g>
			</g>
			<g>
				<g>
					<g>
						<path style="fill:#8AC843;" d="M111.609,308.882c-0.009,0-0.019,0-0.029,0c-2.231-0.016-4.03-1.812-4.03-4.043
							c0-0.087,0.006-0.347,0.019-0.766c0.458-15.303,0.826-67.182-13.694-92.313c-1.121-1.941-0.457-4.424,1.484-5.545
							c1.942-1.121,4.422-0.457,5.546,1.484c15.59,26.984,15.253,80.774,14.779,96.617l-0.016,0.548
							C115.636,307.085,113.827,308.882,111.609,308.882z"/>
						<path style="fill:#669629;" d="M111.609,309.694h-0.029c-2.672-0.019-4.842-2.198-4.842-4.855c0-0.09,0.006-0.358,0.019-0.791
							c0.457-15.248,0.827-66.938-13.586-91.883c-1.343-2.326-0.544-5.31,1.781-6.653c2.324-1.348,5.309-0.544,6.654,1.779
							c15.696,27.167,15.364,81.151,14.888,97.049l-0.016,0.547C116.441,307.531,114.256,309.694,111.609,309.694z M97.382,206.484
							c-0.55,0-1.107,0.14-1.617,0.433c-1.55,0.896-2.083,2.886-1.187,4.436c14.626,25.315,14.263,77.388,13.803,92.744
							c-0.013,0.406-0.019,0.658-0.019,0.742c0,1.769,1.447,3.219,3.224,3.231l0.023,0.812v-0.812c1.765,0,3.222-1.444,3.247-3.219
							l0.016-0.56c0.472-15.79,0.811-69.392-14.67-96.188C99.6,207.066,98.505,206.484,97.382,206.484z"/>
					</g>
					<path style="opacity:0.5;fill:#8AC843;" d="M100.905,207.699c-0.983-1.699-3.005-2.419-4.796-1.822
						c0.533,0.339,1.004,0.792,1.343,1.377c15.591,26.984,15.253,80.774,14.779,96.617l-0.016,0.548
						c-0.025,1.786-1.207,3.28-2.819,3.804c0.63,0.409,1.377,0.654,2.185,0.659c0.009,0,0.019,0,0.029,0
						c2.218,0,4.027-1.797,4.059-4.019l0.016-0.548C116.158,288.473,116.495,234.683,100.905,207.699z"/>
				</g>
				<g>
					<g>
						<g>
							<path style="fill:#8AC843;" d="M90.998,197.317c-0.352-25.931-63.704-19.367-76.26,41.132
								c-12.556,60.499,5.993,89.892,11.986,75.909c5.993-13.983,9.043-26.078,42.806-31.604
								c33.763-5.525,54.239-34.989,54.506-56.576C124.264,207.628,111.475,189.937,90.998,197.317z"/>
							<path style="fill:#669629;" d="M22.904,318.595c-0.484,0-0.897-0.092-1.191-0.184c-8.22-2.586-17.847-31.574-7.771-80.128
								c8.682-41.828,40.907-57.932,61.007-55.999c9.823,0.942,16.157,6.231,16.807,13.915c7.806-2.529,15.036-1.651,20.964,2.57
								c7.622,5.426,12.27,15.933,12.127,27.419c-0.289,23.391-22.534,52.024-55.187,57.368
								c-31.279,5.12-35.843,16.003-41.127,28.604c-0.349,0.831-0.701,1.671-1.064,2.518
								C26.084,317.907,24.229,318.595,22.904,318.595z M71.629,183.752c-19.561,0-48.066,16.161-56.098,54.861
								c-10.423,50.22,0.547,76.324,6.667,78.249c1.869,0.588,3.085-1.213,3.777-2.826c0.361-0.842,0.711-1.677,1.058-2.505
								c5.471-13.047,10.196-24.314,42.363-29.578c34.74-5.686,53.581-36.052,53.825-55.785c0.135-10.962-4.25-20.954-11.445-26.077
								c-5.735-4.083-12.826-4.779-20.505-2.01l-1.071,0.385l-0.016-1.138c-0.101-7.493-5.855-12.513-15.391-13.428
								C73.77,183.801,72.713,183.752,71.629,183.752z"/>
						</g>
						<g>
							<path style="fill:#8AC843;" d="M90.998,197.317c-0.352-25.931-63.704-19.367-76.26,41.132
								c-12.556,60.499,5.993,89.892,11.986,75.909c5.993-13.983,9.043-26.078,42.806-31.604
								c33.763-5.525,54.239-34.989,54.506-56.576C124.264,207.628,111.475,189.937,90.998,197.317z"/>
							<path style="fill:#669629;" d="M22.904,318.595c-0.484,0-0.897-0.092-1.191-0.184c-8.22-2.586-17.847-31.574-7.771-80.128
								c8.682-41.828,40.907-57.932,61.007-55.999c9.823,0.942,16.157,6.231,16.807,13.915c7.806-2.529,15.036-1.651,20.964,2.57
								c7.622,5.426,12.27,15.933,12.127,27.419c-0.289,23.391-22.534,52.024-55.187,57.368
								c-31.279,5.12-35.843,16.003-41.127,28.604c-0.349,0.831-0.701,1.671-1.064,2.518
								C26.084,317.907,24.229,318.595,22.904,318.595z M71.629,183.752c-19.561,0-48.066,16.161-56.098,54.861
								c-10.423,50.22,0.547,76.324,6.667,78.249c1.869,0.588,3.085-1.213,3.777-2.826c0.361-0.842,0.711-1.677,1.058-2.505
								c5.471-13.047,10.196-24.314,42.363-29.578c34.74-5.686,53.581-36.052,53.825-55.785c0.135-10.962-4.25-20.954-11.445-26.077
								c-5.735-4.083-12.826-4.779-20.505-2.01l-1.071,0.385l-0.016-1.138c-0.101-7.493-5.855-12.513-15.391-13.428
								C73.77,183.801,72.713,183.752,71.629,183.752z"/>
						</g>
						<g>
							<path style="fill:#669629;" d="M107.171,196.62c-1.618-0.523-3.212-1.307-4.948-1.478c-0.856-0.119-1.713-0.369-2.582-0.379
								l-2.621-0.065c-3.478,0.2-6.978,0.885-10.219,2.19c-6.56,2.489-12.343,6.551-17.603,11.017l-3.801,3.525l-3.627,3.69
								l-3.416,3.873c-1.115,1.31-2.175,2.663-3.264,3.991c-4.239,5.409-8.116,11.061-11.705,16.914
								c-0.954,1.426-1.789,2.924-2.611,4.43l-2.498,4.494c-1.588,3.036-3.038,6.145-4.498,9.24l-1.976,4.743l-0.987,2.37
								l-0.861,2.419l-1.721,4.836l-1.479,4.914c-3.712,13.143-5.899,26.811-5.22,40.461l0.324-0.025
								c-0.243-13.578,2.367-27.096,6.45-39.965l1.577-4.822l1.814-4.737l0.907-2.367l1.031-2.316l2.059-4.63
								c1.515-3.018,3.015-6.047,4.65-8.998l2.566-4.365c0.844-1.461,1.699-2.915,2.672-4.296
								c3.696-5.639,7.692-11.102,12.008-16.278c1.09-1.282,2.153-2.59,3.265-3.851l3.384-3.736l3.482-3.631l3.639-3.459
								c4.872-4.573,10.3-8.573,16.308-11.35c2.975-1.476,6.192-2.343,9.462-2.803c3.299-0.486,6.635-0.05,9.929,0.748
								L107.171,196.62z"/>
						</g>
						<g>
							<g>
								<path style="fill:#669629;" d="M19.05,224.203c3.804-3.561,7.981-6.716,12.341-9.539c4.358-2.829,8.959-5.282,13.769-7.176
									c4.822-1.876,9.861-3.059,14.949-3.614c2.547-0.307,5.115-0.298,7.684-0.164c2.572,0.163,5.115,0.629,7.672,1.189
									l0.052-0.154c-2.423-1.005-4.975-1.752-7.598-2.16c-2.623-0.382-5.293-0.476-7.949-0.329
									c-2.651,0.216-5.279,0.667-7.838,1.365c-2.549,0.73-5.039,1.627-7.463,2.665c-4.846,2.084-9.423,4.715-13.73,7.704
									c-4.279,3.03-8.335,6.368-12.004,10.099L19.05,224.203z"/>
							</g>
							<g>
								<path style="fill:#669629;" d="M10.539,263.093c2.437-4.105,5.288-7.956,8.348-11.601c3.054-3.653,6.388-7.062,9.974-10.164
									c3.603-3.097,7.59-5.652,11.634-8.053c4.069-2.418,8.48-4.077,13.027-5.615l-0.032-0.159
									c-4.765,0.63-9.453,2.125-13.771,4.348c-4.282,2.288-8.181,5.231-11.718,8.507c-3.539,3.278-6.792,6.841-9.745,10.628
									c-2.917,3.814-5.6,7.805-7.859,12.034L10.539,263.093z"/>
							</g>
							<g>
								<path style="fill:#669629;" d="M75.564,279.895c2.936-6.005,5.3-12.28,7.249-18.683c1.882-6.421,3.343-12.993,4.024-19.683
									c0.718-6.67,0.757-13.508-0.635-20.151c-0.761-3.299-1.754-6.549-3.145-9.633c-1.443-3.06-3.219-5.947-5.338-8.544
									l-0.131,0.096c1.733,2.857,3.233,5.811,4.425,8.885c1.136,3.097,2.019,6.273,2.596,9.511
									c1.143,6.472,1.468,13.11,0.935,19.717c-0.51,6.609-1.797,13.157-3.512,19.581c-1.728,6.421-3.881,12.754-6.613,18.833
									L75.564,279.895z"/>
							</g>
							<g>
								<path style="fill:#669629;" d="M13.152,301.687c0.228-3.339,0.576-6.675,1.579-9.853c0.371-1.621,1.043-3.148,1.597-4.704
									c0.711-1.496,1.344-3.026,2.212-4.437c1.635-2.874,3.644-5.498,5.726-8.048c2.078-2.564,4.354-4.971,6.802-7.276
									l-0.09-0.135c-1.513,0.784-2.901,1.776-4.222,2.847c-0.676,0.52-1.282,1.117-1.926,1.677l-1.791,1.825
									c-2.326,2.506-4.122,5.461-5.643,8.497c-0.82,1.493-1.399,3.102-2.05,4.667c-0.494,1.627-1.1,3.216-1.401,4.889
									c-0.81,3.298-0.943,6.701-0.955,10.052L13.152,301.687z"/>
							</g>
							<g>
								<path style="fill:#669629;" d="M47.307,289.08c3.311-4.456,5.712-9.54,7.55-14.776c1.809-5.255,3.079-10.69,3.908-16.19
									c0.824-5.496,1.313-11.089,0.9-16.672c-0.49-5.521-1.47-11.25-4.435-16.03l-0.142,0.079
									c2.083,5.115,2.753,10.591,2.956,16.043c0.194,5.457,0.075,10.951-0.566,16.406c-0.658,5.449-1.755,10.857-3.391,16.108
									c-1.615,5.249-3.792,10.374-6.911,14.936L47.307,289.08z"/>
							</g>
							<g>
								<path style="fill:#669629;" d="M100.295,269.216c3.057-5.978,5.153-12.431,6.501-19.021
									c1.304-6.602,1.869-13.369,1.501-20.122c-0.376-6.723-1.598-13.573-4.724-19.696c-1.587-3.025-3.562-5.88-6.034-8.248
									c-2.461-2.37-5.374-4.263-8.537-5.431l-0.067,0.148c5.935,3.148,10.443,8.301,13.181,14.25
									c2.797,5.929,4.338,12.457,4.884,19.065c0.522,6.617,0.13,13.317-1.003,19.885c-1.124,6.568-2.995,13.043-5.848,19.098
									L100.295,269.216z"/>
							</g>
						</g>
					</g>
					<path style="opacity:0.5;fill:#8AC843;" d="M90.998,197.317c-0.351-25.931-63.704-19.367-76.26,41.132
						s5.993,89.892,11.986,75.909c5.993-13.983,9.043-26.078,42.806-31.604s54.239-34.989,54.506-56.576
						C124.264,207.628,111.475,189.937,90.998,197.317z M81.372,263.314c-31.57,21.307-53.971,20.949-59.394,47.574
						c0,0-11.604-14.927-8.988-51.621c3.737-52.432,33.505-65.773,44.5-69.598c10.995-3.826,27.239-0.292,6.801,18.813
						c-33.223,31.057-37.303,73.708-37.303,73.708c0.966-1.988,30.836-69.469,61.83-77.837
						C119.811,195.985,112.942,242.007,81.372,263.314z"/>
					<path style="opacity:0.5;fill:#8AC843;" d="M59.026,193.295c-3.244,0.107-5.949,1.684-8.695,3.278
						c-2.623,1.523-5.14,3.229-7.528,5.101c-4.709,3.691-8.876,8.213-12.359,13.069c-7.41,10.332-11.907,22.555-12.766,35.254
						c-0.51,7.537,0.435,15.068,2.453,22.336c0.151,0.545,0.989,0.126,0.879-0.371c-2.77-12.542-1.668-26.139,3.03-38.096
						c4.176-10.629,11.361-19.795,20.432-26.692c2.419-1.84,4.888-3.598,7.513-5.135c2.814-1.646,5.885-2.809,8.278-5.079
						C61.473,195.813,60.922,193.232,59.026,193.295z"/>
					<path style="opacity:0.5;fill:#8AC843;" d="M95.1,207.818c-21.362,8.359-39.19,24.998-48.918,45.795
						c-2.725,5.825-4.721,11.922-6.022,18.218c-0.134,0.651,0.893,0.626,1.046,0.084c5.891-20.944,19.571-39.568,38.063-51.104
						c5.219-3.255,10.765-5.933,16.572-7.958c1.347-0.47,2.502-1.81,2.273-3.313C97.909,208.187,96.396,207.311,95.1,207.818z"/>
				</g>
			</g>
			<g>
				<g>
					<g>
						<path style="fill:#009140;" d="M161.174,302.24c-2.158,0-3.954-1.7-4.051-3.877c-0.029-0.627-2.789-63.062-0.698-96.599
							c0.14-2.236,2.05-3.936,4.303-3.798c2.237,0.139,3.938,2.067,3.799,4.304c-2.064,33.107,0.677,95.106,0.704,95.729
							c0.101,2.24-1.633,4.137-3.872,4.237C161.298,302.238,161.236,302.24,161.174,302.24z"/>
						<path style="fill:#00682A;" d="M161.175,303.052c-2.611,0-4.746-2.044-4.862-4.652c-0.028-0.623-2.778-63.32-0.697-96.687
							c0.167-2.676,2.472-4.725,5.163-4.557c2.681,0.167,4.726,2.483,4.559,5.164c-2.02,32.397,0.591,93.047,0.703,95.612
							c0.06,1.329-0.391,2.573-1.268,3.534c-0.878,0.961-2.077,1.522-3.376,1.579L161.175,303.052z M160.478,198.77
							c-1.7,0-3.135,1.327-3.242,3.044c-2.075,33.282,0.67,95.89,0.698,96.513c0.077,1.739,1.501,3.101,3.24,3.101l0.144-0.003
							c0.871-0.04,1.67-0.414,2.256-1.054c0.585-0.639,0.886-1.47,0.847-2.335c-0.113-2.602-2.729-63.334-0.703-95.817
							c0.112-1.787-1.252-3.331-3.039-3.442C160.612,198.772,160.544,198.77,160.478,198.77z"/>
					</g>
					<path style="opacity:0.5;fill:#009140;" d="M164.528,202.27c0.14-2.237-1.562-4.164-3.799-4.304
						c-0.536-0.033-1.05,0.045-1.528,0.202c1.2,0.77,1.969,2.134,1.874,3.657c-2.064,33.107,0.677,95.106,0.704,95.729
						c0.085,1.868-1.116,3.482-2.813,4.03c0.638,0.416,1.398,0.656,2.209,0.656c0.062,0,0.124-0.002,0.186-0.004
						c2.239-0.101,3.973-1.998,3.872-4.237C165.205,297.376,162.463,235.377,164.528,202.27z"/>
				</g>
				<g>
					<g>
						<g>
							<path style="fill:#36A342;" d="M153.82,144.232c6.023-25.323,66.641-5.018,65.69,56.991
								c-0.951,62.01-25.557,86.738-28.365,71.729c-2.808-15.009-3.147-27.525-35.008-40.331
								c-31.861-12.807-45.465-46.151-40.999-67.355C118.976,147.047,135.378,132.519,153.82,144.232z"/>
							<path style="fill:#217A29;" d="M194.826,278.031c-1.287,0-3.671-0.614-4.479-4.929c-0.17-0.908-0.331-1.807-0.49-2.7
								c-2.416-13.501-4.503-25.162-34.022-37.027c-30.812-12.385-46.329-45.302-41.49-68.276
								c2.376-11.281,9.228-20.553,17.882-24.198c6.731-2.833,14.004-2.114,21.097,2.077c2.318-7.384,9.684-11.188,19.508-9.951
								c20.115,2.515,48.147,25.342,47.49,68.21c-0.763,49.765-16.54,76.05-25.157,76.781
								C195.064,278.026,194.949,278.031,194.826,278.031z M140.519,140.829c-2.611,0-5.179,0.522-7.662,1.566
								c-8.171,3.442-14.656,12.27-16.924,23.039c-4.083,19.385,7.722,53.255,40.507,66.434
								c30.353,12.201,32.514,24.271,35.015,38.248c0.158,0.888,0.319,1.782,0.488,2.688c0.323,1.731,1.1,3.77,3.084,3.596
								c6.417-0.546,22.882-23.712,23.671-75.189c0.642-41.864-26.552-64.133-46.067-66.573c-9.535-1.186-16.28,2.464-18.021,9.783
								l-0.263,1.108l-0.962-0.61C149.105,142.2,144.756,140.829,140.519,140.829z"/>
						</g>
						<g>
							<path style="fill:#36A342;" d="M153.82,144.232c6.023-25.323,66.641-5.018,65.69,56.991
								c-0.951,62.01-25.557,86.738-28.365,71.729c-2.808-15.009-3.147-27.525-35.008-40.331
								c-31.861-12.807-45.465-46.151-40.999-67.355C118.976,147.047,135.378,132.519,153.82,144.232z"/>
							<path style="fill:#217A29;" d="M194.826,278.031c-1.287,0-3.671-0.614-4.479-4.929c-0.17-0.908-0.331-1.807-0.49-2.7
								c-2.416-13.501-4.503-25.162-34.022-37.027c-30.812-12.385-46.329-45.302-41.49-68.276
								c2.376-11.281,9.228-20.553,17.882-24.198c6.731-2.833,14.004-2.114,21.097,2.077c2.318-7.384,9.684-11.188,19.508-9.951
								c20.115,2.515,48.147,25.342,47.49,68.21c-0.763,49.765-16.54,76.05-25.157,76.781
								C195.064,278.026,194.949,278.031,194.826,278.031z M140.519,140.829c-2.611,0-5.179,0.522-7.662,1.566
								c-8.171,3.442-14.656,12.27-16.924,23.039c-4.083,19.385,7.722,53.255,40.507,66.434
								c30.353,12.201,32.514,24.271,35.015,38.248c0.158,0.888,0.319,1.782,0.488,2.688c0.323,1.731,1.1,3.77,3.084,3.596
								c6.417-0.546,22.882-23.712,23.671-75.189c0.642-41.864-26.552-64.133-46.067-66.573c-9.535-1.186-16.28,2.464-18.021,9.783
								l-0.263,1.108l-0.962-0.61C149.105,142.2,144.756,140.829,140.519,140.829z"/>
						</g>
						<g>
							<path style="fill:#217A29;" d="M138.13,140.007c1.699-0.158,3.433-0.577,5.17-0.364c0.865,0.071,1.758,0.014,2.612,0.194
								l2.582,0.511c3.364,0.958,6.641,2.395,9.53,4.383c5.881,3.875,10.656,9.12,14.829,14.646l2.952,4.285l2.745,4.408
								l2.498,4.542c0.805,1.527,1.547,3.084,2.323,4.624c2.967,6.227,5.527,12.611,7.761,19.131
								c0.622,1.606,1.112,3.256,1.587,4.911l1.463,4.949c0.89,3.321,1.63,6.685,2.383,10.036l0.896,5.078l0.448,2.538l0.314,2.558
								l0.627,5.114l0.372,5.138c0.758,13.687-0.094,27.553-3.749,40.775l-0.312-0.095c3.212-13.247,3.616-27.06,2.435-40.559
								l-0.489-5.068l-0.74-5.037l-0.37-2.517l-0.502-2.495l-1.003-4.986c-0.823-3.288-1.629-6.583-2.584-9.832l-1.557-4.838
								c-0.506-1.616-1.025-3.227-1.676-4.793c-2.386-6.333-5.103-12.56-8.197-18.574c-0.787-1.495-1.542-3.008-2.355-4.487
								l-2.496-4.4l-2.615-4.319l-2.807-4.185c-3.77-5.547-8.212-10.654-13.489-14.689c-2.591-2.097-5.552-3.651-8.654-4.818
								c-3.125-1.198-6.488-1.502-9.89-1.441L138.13,140.007z"/>
						</g>
						<g>
							<g>
								<path style="fill:#217A29;" d="M218.405,186.325c-2.946-4.322-6.346-8.326-9.999-12.047
									c-3.649-3.726-7.618-7.136-11.915-10.045c-4.312-2.894-8.989-5.156-13.851-6.814c-2.428-0.859-4.945-1.413-7.491-1.844
									c-2.555-0.403-5.148-0.504-7.775-0.515l-0.017-0.162c2.593-0.454,5.257-0.627,7.915-0.452
									c2.653,0.201,5.289,0.693,7.858,1.419c2.549,0.792,5.025,1.809,7.379,3.053c2.337,1.273,4.579,2.698,6.727,4.245
									c4.29,3.103,8.198,6.682,11.762,10.554c3.528,3.905,6.77,8.063,9.546,12.521L218.405,186.325z"/>
							</g>
							<g>
								<path style="fill:#217A29;" d="M218.225,226.283c-1.488-4.554-3.437-8.951-5.636-13.192
									c-2.192-4.247-4.711-8.317-7.543-12.14c-2.851-3.823-6.196-7.199-9.632-10.437c-3.456-3.26-7.413-5.85-11.53-8.353
									l0.066-0.149c4.53,1.661,8.794,4.152,12.537,7.275c3.693,3.179,6.867,6.916,9.615,10.899
									c2.749,3.986,5.154,8.188,7.218,12.545c2.022,4.375,3.776,8.872,5.062,13.509L218.225,226.283z"/>
							</g>
							<g>
								<path style="fill:#217A29;" d="M150.852,228.499c-1.561-6.525-2.502-13.189-3.008-19.888
									c-0.437-6.701-0.429-13.459,0.369-20.161c0.758-6.69,2.217-13.397,5.035-19.599c1.468-3.064,3.153-6.031,5.191-8.747
									c2.084-2.681,4.456-5.12,7.1-7.2l0.108,0.122c-2.323,2.419-4.439,4.984-6.281,7.734c-1.791,2.785-3.352,5.702-4.626,8.747
									c-2.536,6.089-4.31,12.52-5.234,19.109c-0.948,6.585-1.121,13.282-0.849,19.949c0.287,6.668,1.009,13.343,2.353,19.896
									L150.852,228.499z"/>
							</g>
							<g>
								<path style="fill:#217A29;" d="M207.213,263.514c0.508-3.32,0.898-6.664,0.611-9.997c-0.008-1.669-0.332-3.312-0.534-4.958
									c-0.369-1.621-0.654-3.259-1.195-4.831c-0.972-3.173-2.365-6.183-3.846-9.138c-1.474-2.967-3.176-5.823-5.069-8.617
									l0.118-0.113c1.311,1.099,2.452,2.375,3.512,3.713c0.549,0.657,1.011,1.375,1.52,2.065l1.355,2.18
									c1.729,2.964,2.841,6.251,3.667,9.559c0.476,1.642,0.691,3.345,0.986,5.02c0.128,1.702,0.373,3.391,0.301,5.096
									c0.072,3.408-0.544,6.77-1.266,10.055L207.213,263.514z"/>
							</g>
							<g>
								<path style="fill:#217A29;" d="M176.518,243.684c-2.267-5.09-3.506-10.596-4.159-16.127
									c-0.621-5.544-0.675-11.145-0.282-16.715c0.396-5.564,1.142-11.149,2.77-16.527c1.689-5.301,3.903-10.697,7.855-14.73
									l0.121,0.109c-3.161,4.554-5.017,9.771-6.409,15.067c-1.385,5.302-2.472,10.71-3.038,16.194
									c-0.548,5.481-0.659,11.019-0.206,16.521c0.432,5.495,1.442,10.992,3.498,16.144L176.518,243.684z"/>
							</g>
							<g>
								<path style="fill:#217A29;" d="M128.966,212.623c-1.685-6.525-2.325-13.305-2.202-20.055
									c0.168-6.752,1.098-13.505,2.937-20.039c1.841-6.503,4.538-12.945,8.941-18.257c2.217-2.616,4.777-4.98,7.716-6.758
									c2.93-1.782,6.197-2.998,9.551-3.45l0.033,0.16c-6.503,1.784-12.047,5.844-16.032,11.071
									c-4.038,5.195-6.977,11.252-8.959,17.605c-1.961,6.367-3.044,13.016-3.373,19.697c-0.338,6.679,0.077,13.432,1.546,19.988
									L128.966,212.623z"/>
							</g>
						</g>
					</g>
					<path style="opacity:0.5;fill:#36A342;" d="M115.139,165.266c-4.466,21.204,9.138,54.548,40.999,67.355
						c31.861,12.807,32.2,25.322,35.008,40.331c2.807,15.01,27.414-9.719,28.365-71.729c0.951-62.01-59.667-82.314-65.69-56.991
						C135.378,132.519,118.976,147.047,115.139,165.266z M154.415,151.601c28.527,14.984,43.005,87.625,43.516,89.784
						c0,0,5.344-42.671-20.396-80.368c-15.835-23.19,0.851-23.094,10.782-16.938c9.931,6.155,36.168,25.742,28.345,77.919
						c-5.475,36.515-20.11,48.595-20.11,48.595c0.519-27.267-21.501-31.823-47.758-59.608
						C122.537,183.201,125.888,136.617,154.415,151.601z"/>
					<path style="opacity:0.5;fill:#36A342;" d="M186.017,147.295c3.154,0.815,5.458,2.952,7.799,5.115
						c2.236,2.067,4.328,4.289,6.256,6.645c3.805,4.647,6.896,9.989,9.243,15.508c4.995,11.743,6.724,24.701,4.783,37.328
						c-1.152,7.494-3.727,14.665-7.295,21.342c-0.267,0.5-0.997-0.093-0.78-0.556c5.461-11.678,7.358-25.238,5.376-37.979
						c-1.762-11.326-6.794-21.877-14.167-30.62c-1.967-2.332-4-4.595-6.235-6.675c-2.396-2.229-5.15-4.04-6.996-6.788
						C183.069,149.225,184.173,146.818,186.017,147.295z"/>
					<path style="opacity:0.5;fill:#36A342;" d="M147.501,153.62c19.094,12.866,32.913,33.069,37.887,55.571
						c1.393,6.303,2.013,12.712,1.908,19.164c-0.011,0.667-1.012,0.417-1.043-0.146c-1.184-21.805-10.504-43.044-26.091-58.394
						c-4.399-4.332-9.245-8.169-14.49-11.425c-1.217-0.756-2.054-2.321-1.501-3.743C144.669,153.366,146.343,152.84,147.501,153.62z
						"/>
				</g>
			</g>
			<g>
				<g>
					<g>
						<g>
							<path style="fill:#8AC843;" d="M262.009,318.411c-0.017,0-0.036,0-0.055-0.001c-2.22-0.03-4.003-1.81-4.003-4.03
								c0-0.112,0.01-0.391,0.032-0.838c0.553-11.132,1.233-54.165-13.257-140.546c-0.371-2.211,1.121-4.304,3.333-4.674
								c2.19-0.382,4.303,1.119,4.674,3.331c14.623,87.186,13.921,130.954,13.358,142.292l-0.022,0.49
								C266.006,316.635,264.203,318.411,262.009,318.411z"/>
							<path style="fill:#669629;" d="M262.009,319.223l-0.123-0.005c-2.637-0.033-4.748-2.159-4.748-4.837
								c0-0.117,0.009-0.411,0.033-0.878c0.552-11.113,1.23-54.076-13.246-140.372c-0.216-1.283,0.082-2.573,0.837-3.632
								c0.756-1.059,1.879-1.762,3.162-1.977c1.266-0.214,2.549,0.073,3.613,0.825c1.071,0.758,1.78,1.885,1.996,3.173
								c14.635,87.256,13.932,131.106,13.368,142.466l-0.022,0.487C266.806,317.086,264.621,319.223,262.009,319.223z
								 M248.746,169.073c-0.182,0-0.366,0.016-0.548,0.048c-0.861,0.144-1.61,0.614-2.113,1.319
								c-0.503,0.707-0.702,1.566-0.558,2.421c14.503,86.457,13.821,129.568,13.267,140.72c-0.021,0.427-0.031,0.691-0.031,0.799
								c0,1.779,1.407,3.193,3.203,3.217l0.044,0.813v-0.812c1.741,0,3.198-1.43,3.247-3.187l0.023-0.504
								c0.562-11.324,1.261-55.026-13.348-142.12c-0.144-0.859-0.618-1.611-1.333-2.117
								C250.045,169.278,249.402,169.073,248.746,169.073z"/>
						</g>
						<path style="opacity:0.5;fill:#8AC843;" d="M252.732,171.653c-0.371-2.212-2.484-3.713-4.674-3.331
							c-0.205,0.034-0.395,0.098-0.587,0.16c0.923,0.599,1.612,1.558,1.808,2.726c14.623,87.186,13.921,130.954,13.358,142.292
							l-0.022,0.49c-0.05,1.766-1.228,3.241-2.823,3.761c0.623,0.403,1.362,0.648,2.161,0.659c0.019,0.001,0.038,0.001,0.055,0.001
							c2.194,0,3.997-1.776,4.059-3.976l0.022-0.49C266.653,302.607,267.355,258.839,252.732,171.653z"/>
					</g>
				</g>
				<g>
					<g>
						<g>
							<path style="fill:#8AC843;" d="M230.675,93.784c-16.604-20.842-63.934,24.359-36.059,81.403s61.439,69.246,57.507,54.116
								c-3.932-15.13-9.066-26.874,14.881-52.61c23.947-25.736,22.038-62.555,8.669-80.258
								C264.187,81.224,242.665,74.903,230.675,93.784z"/>
							<path style="fill:#669629;" d="M248.482,236.068c-10,0.002-33.877-18.126-54.595-60.524
								c-19.265-39.426-3.233-72.769,14.304-83.852c8.572-5.419,17.045-5.101,22.4,0.742c4.745-6.976,11.172-10.816,18.642-11.119
								c9.615-0.403,19.98,5.216,27.089,14.631c14.48,19.175,14.43,56.418-8.722,81.301c-22.196,23.853-19.052,35.57-15.411,49.139
								c0.24,0.894,0.483,1.798,0.721,2.713c1.235,4.753-1.206,6.22-2.312,6.629C249.985,235.954,249.276,236.068,248.482,236.068z
								 M220.059,89.415c-3.395,0-7.145,1.211-11.001,3.648c-17.027,10.761-32.537,43.244-13.713,81.767
								c23.145,47.368,48.503,61.645,54.687,59.375c1.904-0.706,1.761-2.944,1.305-4.698c-0.237-0.912-0.478-1.811-0.717-2.702
								c-3.766-14.033-7.018-26.153,15.79-50.666c24.649-26.491,20.842-63.026,8.616-79.215
								c-6.792-8.996-16.631-14.362-25.728-13.987c-7.235,0.293-13.437,4.194-17.938,11.279l-0.611,0.962l-0.71-0.891
								C227.458,91.048,223.999,89.415,220.059,89.415z"/>
						</g>
						<g>
							<path style="fill:#8AC843;" d="M230.675,93.784c-16.604-20.842-63.934,24.359-36.059,81.403s61.439,69.246,57.507,54.116
								c-3.932-15.13-9.066-26.874,14.881-52.61c23.947-25.736,22.038-62.555,8.669-80.258
								C264.187,81.224,242.665,74.903,230.675,93.784z"/>
							<path style="fill:#669629;" d="M248.482,236.068c-10,0.002-33.877-18.126-54.595-60.524
								c-19.265-39.426-3.233-72.769,14.304-83.852c8.572-5.419,17.045-5.101,22.4,0.742c4.745-6.976,11.172-10.816,18.642-11.119
								c9.615-0.403,19.98,5.216,27.089,14.631c14.48,19.175,14.43,56.418-8.722,81.301c-22.196,23.853-19.052,35.57-15.411,49.139
								c0.24,0.894,0.483,1.798,0.721,2.713c1.235,4.753-1.206,6.22-2.312,6.629C249.985,235.954,249.276,236.068,248.482,236.068z
								 M220.059,89.415c-3.395,0-7.145,1.211-11.001,3.648c-17.027,10.761-32.537,43.244-13.713,81.767
								c23.145,47.368,48.503,61.645,54.687,59.375c1.904-0.706,1.761-2.944,1.305-4.698c-0.237-0.912-0.478-1.811-0.717-2.702
								c-3.766-14.033-7.018-26.153,15.79-50.666c24.649-26.491,20.842-63.026,8.616-79.215
								c-6.792-8.996-16.631-14.362-25.728-13.987c-7.235,0.293-13.437,4.194-17.938,11.279l-0.611,0.962l-0.71-0.891
								C227.458,91.048,223.999,89.415,220.059,89.415z"/>
						</g>
						<g>
							<path style="fill:#669629;" d="M243.374,83.039c-1.643,0.594-3.432,0.959-4.949,1.914c-0.77,0.442-1.623,0.778-2.336,1.317
								l-2.17,1.597c-2.7,2.352-5.111,5.11-6.923,8.21c-3.762,6.15-5.904,13.089-7.365,20.027l-0.87,5.256l-0.624,5.28l-0.337,5.296
								c-0.081,1.766-0.091,3.531-0.139,5.296c-0.039,7.061,0.368,14.092,1.136,21.105c0.122,1.758,0.387,3.501,0.667,5.241
								l0.799,5.223c0.621,3.465,1.4,6.904,2.161,10.337l1.38,5.096l0.69,2.546l0.823,2.507l1.646,5.011l1.891,4.922
								c5.256,13.012,12.081,25.49,21.223,36.15l0.247-0.224c-8.742-10.877-15.13-23.499-19.912-36.522l-1.753-4.909l-1.507-4.989
								l-0.753-2.493l-0.62-2.53l-1.241-5.057c-0.669-3.405-1.356-6.81-1.886-10.235l-0.663-5.16
								c-0.235-1.718-0.455-3.437-0.533-5.171c-0.546-6.907-0.739-13.859-0.491-20.779c0.079-1.728,0.119-3.459,0.229-5.182
								l0.398-5.164l0.543-5.141l0.779-5.099c1.079-6.781,2.971-13.446,6.104-19.482c1.488-3.071,3.555-5.8,5.922-8.232
								c2.374-2.471,5.358-4.216,8.536-5.641L243.374,83.039z"/>
						</g>
						<g>
							<g>
								<path style="fill:#669629;" d="M189.154,160.901c0.848-5.287,2.256-10.478,4.021-15.515
									c1.759-5.04,3.953-9.929,6.668-14.494c2.736-4.558,6.085-8.691,9.868-12.343c1.876-1.853,3.967-3.462,6.139-4.969
									c2.192-1.486,4.551-2.708,6.98-3.862l-0.055-0.158c-2.601,0.708-5.144,1.707-7.531,3.027
									c-2.371,1.341-4.599,2.944-6.664,4.736c-2.018,1.843-3.868,3.864-5.508,6.041c-1.611,2.197-3.069,4.493-4.385,6.861
									c-2.624,4.743-4.687,9.76-6.304,14.899c-1.569,5.154-2.763,10.418-3.395,15.758L189.154,160.901z"/>
							</g>
							<g>
								<path style="fill:#669629;" d="M206.715,197.847c-0.604-4.868-0.712-9.79-0.52-14.677c0.182-4.89,0.745-9.757,1.705-14.533
									c0.978-4.783,2.608-9.368,4.382-13.863c1.783-4.525,4.323-8.648,7.048-12.759l-0.126-0.109
									c-3.474,3.51-6.341,7.675-8.449,12.198c-2.038,4.554-3.353,9.397-4.165,14.284c-0.812,4.89-1.212,9.831-1.228,14.766
									c0.031,4.934,0.363,9.864,1.19,14.721L206.715,197.847z"/>
							</g>
							<g>
								<path style="fill:#669629;" d="M270.107,170.573c-1.394-6.726-3.423-13.31-5.87-19.738
									c-2.512-6.399-5.461-12.658-9.119-18.521c-3.614-5.869-7.886-11.449-13.197-15.969c-2.694-2.201-5.547-4.216-8.617-5.845
									c-3.098-1.577-6.357-2.805-9.713-3.581l-0.046,0.16c3.206,1.23,6.283,2.685,9.187,4.433c2.872,1.8,5.588,3.824,8.094,6.091
									c5.001,4.538,9.443,9.725,13.168,15.428c3.745,5.689,6.82,11.819,9.471,18.115c2.637,6.303,4.874,12.803,6.48,19.46
									L270.107,170.573z"/>
							</g>
							<g>
								<path style="fill:#669629;" d="M233.126,227.552c-1.916-2.855-3.733-5.784-4.918-8.997c-0.719-1.55-1.134-3.213-1.664-4.826
									c-0.364-1.663-0.813-3.304-0.996-4.996c-0.48-3.364-0.5-6.759-0.414-10.141c0.075-3.39,0.408-6.778,0.946-10.19
									l-0.158-0.053c-0.736,1.589-1.238,3.268-1.638,4.969c-0.222,0.848-0.338,1.714-0.509,2.575l-0.307,2.609
									c-0.312,3.499,0.089,7.029,0.764,10.454c0.274,1.729,0.815,3.4,1.272,5.081c0.622,1.632,1.13,3.304,1.939,4.853
									c1.417,3.189,3.451,6.036,5.551,8.766L233.126,227.552z"/>
							</g>
							<g>
								<path style="fill:#669629;" d="M252.935,195.816c-0.115-5.703-1.364-11.344-3.166-16.753
									c-1.838-5.408-4.226-10.621-7.014-15.611c-2.789-4.983-5.911-9.833-9.761-14.108c-3.873-4.176-8.273-8.213-13.691-10.229
									l-0.065,0.154c4.912,2.844,8.901,6.87,12.497,11.171c3.591,4.31,6.952,8.848,9.865,13.682
									c2.894,4.84,5.408,9.924,7.383,15.218c1.992,5.28,3.449,10.813,3.786,16.482L252.935,195.816z"/>
							</g>
							<g>
								<path style="fill:#669629;" d="M283.475,146.335c-1.279-6.779-3.637-13.341-6.69-19.541
									c-3.095-6.183-6.896-12.035-11.444-17.289c-4.537-5.224-9.84-10.019-16.232-13.025c-3.193-1.459-6.594-2.535-10.092-2.903
									c-3.49-0.376-7.047-0.081-10.352,0.961l0.039,0.162c6.802-1.178,13.707,0.17,19.675,3.28
									c6.003,3.056,11.363,7.389,15.965,12.412c4.589,5.047,8.487,10.735,11.699,16.783c3.221,6.042,5.776,12.479,7.268,19.194
									L283.475,146.335z"/>
							</g>
						</g>
					</g>
					<path style="opacity:0.5;fill:#8AC843;" d="M230.675,93.784c-16.604-20.842-63.934,24.359-36.059,81.403
						c27.874,57.044,61.439,69.246,57.507,54.116c-3.932-15.13-9.066-26.874,14.881-52.61c23.947-25.736,22.037-62.555,8.669-80.258
						C264.187,81.224,242.664,74.902,230.675,93.784z M264.39,153.449c-12.235,37.175-30.655,50.982-18.305,76.022
						c0,0-18.82-4.823-39.788-36.274c-29.961-44.941-14.177-74.511-7.654-84.538c6.523-10.027,21.942-17.379,17.364,11.001
						c-7.442,46.135,16.086,83.347,16.086,83.347c-0.466-2.223-18.672-75.834,1.238-102.136
						C253.241,74.569,276.625,116.274,264.39,153.449z"/>
					<path style="opacity:0.5;fill:#8AC843;" d="M202.174,110.637c-2.568,2.128-3.773,5.111-5,8.134
						c-1.172,2.888-2.143,5.858-2.905,8.881c-1.502,5.962-2.041,12.258-1.814,18.394c0.483,13.056,4.522,25.814,11.817,36.67
						c4.329,6.443,9.836,11.966,16.049,16.6c0.466,0.347,0.883-0.52,0.481-0.855c-10.143-8.444-17.805-20.183-21.514-32.851
						c-3.297-11.262-3.229-23.229-0.202-34.54c0.807-3.017,1.706-5.999,2.872-8.899c1.25-3.108,3.013-5.985,3.527-9.335
						C205.747,111.142,203.675,109.393,202.174,110.637z"/>
					<path style="opacity:0.5;fill:#8AC843;" d="M240.616,99.732c-12.091,20.233-16.102,44.969-10.915,67.984
						c1.453,6.447,3.668,12.655,6.574,18.588c0.3,0.613,1.119-0.054,0.902-0.59c-8.395-20.72-9.004-44.457-1.243-65.465
						c2.19-5.928,5.01-11.594,8.453-16.894c0.799-1.23,0.893-3.045-0.238-4.121C243.13,98.263,241.35,98.504,240.616,99.732z"/>
				</g>
			</g>
		</g>
	</g>
	<g>
		<g>
			<g>
				<path style="fill:#0667D6;" d="M253.233,455.359H136.452c-11.895,0-22.287-8.04-25.275-19.553l-21.459-82.692h210.249
					l-21.459,82.692C275.521,447.32,265.128,455.359,253.233,455.359z"/>
				<path style="fill:#1958A1;" d="M253.233,456.237H136.452c-12.293,0-23.035-8.312-26.125-20.21l-21.742-83.79h212.517
					l-21.743,83.79C276.27,447.926,265.527,456.237,253.233,456.237z M90.853,353.991l21.173,81.594
					c2.888,11.128,12.933,18.898,24.426,18.898h116.781c11.494,0,21.54-7.77,24.426-18.898l21.175-81.594H90.853z"/>
			</g>
			<polygon style="opacity:0.4;fill:#1958A1;" points="297.966,360.824 299.967,353.114 89.718,353.114 91.719,360.824 			"/>
			<path style="opacity:0.4;fill:#1958A1;" d="M89.718,353.114l5.002,19.274c0,0,150.6-23.704,150.6,31.849
				c0,47.109-91.83,51.123-133.165,34.519c3.873,9.908,13.45,16.604,24.297,16.604h116.781c11.895,0,22.287-8.04,25.275-19.553
				l21.459-82.692H89.718z"/>
			<path style="opacity:0.4;fill:#1958A1;" d="M281.41,353.114l-21.459,82.692c-2.988,11.514-13.38,19.553-25.275,19.553h18.557
				c11.895,0,22.287-8.04,25.275-19.553l21.459-82.692H281.41z"/>
			<path style="opacity:0.6;fill:#3B96FF;" d="M98.604,379.456l12.794,52.523c0,0,81.761,6.936,83.444-27.742
				C196.526,369.558,121.423,373.612,98.604,379.456z"/>
		</g>
		<g>
			<g>
				<path style="fill:#0667D6;" d="M302.518,356.748H87.167c-8.84,0-16.006-7.166-16.006-16.006v-24.302
					c0-8.84,7.166-16.006,16.006-16.006h215.351c8.84,0,16.006,7.166,16.006,16.006v24.302
					C318.524,349.581,311.358,356.748,302.518,356.748z"/>
				<path style="fill:#1958A1;" d="M302.518,357.624H87.167c-9.309,0-16.882-7.573-16.882-16.884V316.44
					c0-9.31,7.573-16.884,16.882-16.884h215.352c9.31,0,16.883,7.573,16.883,16.884v24.301
					C319.402,350.051,311.829,357.624,302.518,357.624z M87.167,301.31c-8.341,0-15.128,6.787-15.128,15.129v24.301
					c0,8.342,6.787,15.129,15.128,15.129h215.352c8.342,0,15.129-6.787,15.129-15.129V316.44c0-8.342-6.787-15.129-15.129-15.129
					H87.167z"/>
			</g>
			<path style="opacity:0.4;fill:#1958A1;" d="M302.518,300.433h-18.557c8.84,0,16.006,7.166,16.006,16.006v24.302
				c0,8.84-7.166,16.006-16.006,16.006h18.557c8.84,0,16.006-7.166,16.006-16.006v-24.302
				C318.524,307.599,311.358,300.433,302.518,300.433z"/>
			<path style="opacity:0.4;fill:#1958A1;" d="M302.518,300.433H87.167c-5.937,0-11.107,3.24-13.87,8.04v0
				c99.283-4.589,191.128-10.592,191.128,20.117S98.807,353.729,71.161,340.741c0,8.84,7.166,16.006,16.006,16.006h215.351
				c8.84,0,16.006-7.166,16.006-16.006v-24.302C318.524,307.599,311.358,300.433,302.518,300.433z"/>
			<path style="opacity:0.6;fill:#3B96FF;" d="M72.806,316.38v21.618c0,0,137.301,13.324,137.301-11.959
				C210.107,300.757,72.806,316.38,72.806,316.38z"/>
		</g>
	</g>
</g>
</svg>
